<?xml version="1.0" encoding="UTF-8" standalone="no"?>
<!-- Created with Inkscape (http://www.inkscape.org/) -->
<svg id="svg4062" xmlns:rdf="http://www.w3.org/1999/02/22-rdf-syntax-ns#" xmlns="http://www.w3.org/2000/svg" height="48" width="48" version="1.1" xmlns:cc="http://creativecommons.org/ns#" xmlns:xlink="http://www.w3.org/1999/xlink" xmlns:dc="http://purl.org/dc/elements/1.1/">
 <defs id="defs4064">
  <linearGradient id="linearGradient3906-0" y2="44.341" gradientUnits="userSpaceOnUse" x2="71.204" gradientTransform="translate(-47.734 -.35724)" y1="6.2376" x1="71.204">
   <stop id="stop4013" stop-color="#fff" offset="0"/>
   <stop id="stop4015" stop-color="#fff" stop-opacity=".23529" offset=".50776"/>
   <stop id="stop4017" stop-color="#fff" stop-opacity=".15686" offset=".83457"/>
   <stop id="stop4019" stop-color="#fff" stop-opacity=".39216" offset="1"/>
  </linearGradient>
  <radialGradient id="radialGradient3909-0" gradientUnits="userSpaceOnUse" cy="8.4498" cx="6.2973" gradientTransform="matrix(0 1.3402 -1.4178 -3.6478e-8 35.98 -2.8851)" r="20">
   <stop id="stop3750-8-9" stop-color="#90dbec" offset="0"/>
   <stop id="stop3752-3-2" stop-color="#42baea" offset=".26238"/>
   <stop id="stop3754-7-2" stop-color="#3689e6" offset=".70495"/>
   <stop id="stop3756-9-3" stop-color="#2b63a0" offset="1"/>
  </radialGradient>
  <linearGradient id="linearGradient3911-1" y2="3.899" gradientUnits="userSpaceOnUse" x2="24" gradientTransform="translate(.00000239 1)" y1="44" x1="24">
   <stop id="stop3760-7-3" stop-color="#185f9a" offset="0"/>
   <stop id="stop3762-8-4" stop-color="#599ec9" offset="1"/>
  </linearGradient>
  <radialGradient id="radialGradient4060" gradientUnits="userSpaceOnUse" cy="4.625" cx="62.625" gradientTransform="matrix(2.1647 0 0 .75294 -111.56 36.518)" r="10.625">
   <stop id="stop8840" offset="0"/>
   <stop id="stop8842" stop-opacity="0" offset="1"/>
  </radialGradient>
  <radialGradient id="radialGradient9914" fy="22.504" gradientUnits="userSpaceOnUse" cy="26.141" cx="21.12" gradientTransform="matrix(0 1.0014 -1.0999 0 52.752 3.8498)" r="20.002">
   <stop id="stop9910" stop-color="#ffca51" offset="0"/>
   <stop id="stop9926" stop-color="#ffbb39" offset=".39939"/>
   <stop id="stop9928" stop-color="#ff780b" offset=".77552"/>
   <stop id="stop9912" stop-color="#ff6201" offset="1"/>
  </radialGradient>
  <linearGradient id="linearGradient9938" y2="44.332" gradientUnits="userSpaceOnUse" x2="32.438" gradientTransform="matrix(.97581 0 0 .97579 .58048 .62059)" y1="8.5399" x1="21.375">
   <stop id="stop9946" stop-color="#de6300" offset="0"/>
   <stop id="stop9944" stop-color="#d04e00" offset="1"/>
  </linearGradient>
  <radialGradient id="radialGradient9962" gradientUnits="userSpaceOnUse" cy="24.709" cx="23.997" gradientTransform="matrix(1.1428 0 0 1.1302 -3.4233 -2.9275)" r="19.594">
   <stop id="stop9952" stop-color="#fff" stop-opacity=".15686" offset="0"/>
   <stop id="stop9960" stop-color="#fff" stop-opacity=".23529" offset=".43016"/>
   <stop id="stop9958" stop-color="#fff" stop-opacity=".39216" offset=".94998"/>
   <stop id="stop9954" stop-color="#fff" offset="1"/>
  </radialGradient>
 </defs>
 <metadata id="metadata4067">
  <rdf:RDF>
   <cc:Work rdf:about="">
    <dc:format>image/svg+xml</dc:format>
    <dc:type rdf:resource="http://purl.org/dc/dcmitype/StillImage"/>
    <dc:title/>
   </cc:Work>
  </rdf:RDF>
 </metadata>
 <g id="layer1">
  <path id="path8836" opacity=".3" d="m47 40c0 4.4183-10.297 8-23 8s-23-3.5817-23-8 10.297-8 23-8 23 3.5817 23 8z" fill-rule="evenodd" fill="url(#radialGradient4060)"/>
  <path id="path2555" stroke-linejoin="round" style="color:#000000" d="m24 5.5018c-10.758 0-19.498 8.7402-19.498 19.498s8.7398 19.498 19.498 19.498 19.498-8.7398 19.498-19.498-8.7398-19.498-19.498-19.498z" stroke="url(#linearGradient3911-1)" stroke-linecap="round" fill="url(#radialGradient3909-0)"/>
  <path id="path6534" opacity=".4" d="m24.33 6.2183-2.3623 0.27046-2.5986 0.70995c0.221-0.0777 0.445-0.1625 0.675-0.2368l-0.304-0.5409-1.012 0.1691-0.507 0.4733-0.776 0.1014-0.709 0.338-0.337 0.1691-0.101 0.1352-0.507 0.1014-0.303 0.6424-0.405-0.8114-0.13499 0.33807 0.0675 0.91279-0.64121 0.54091-0.37122 0.98041h0.7762l0.30373-0.64233 0.10124-0.23665c0.34129-0.24178 0.66483-0.51103 1.0124-0.74376l0.81 0.2705c0.52734 0.3589 1.0584 0.72347 1.5861 1.0818l0.777-0.7096-0.878-0.3719-0.405-0.8114-1.485-0.169-0.033-0.1691 0.641 0.1353 0.371-0.3719 0.81-0.169c0.19167-0.093384 0.38022-0.16064 0.57371-0.23665l-0.50622 0.4733 1.8224 1.2509v0.74376l-0.7087 0.70995 0.94494 1.8932 0.64121-0.37188 0.80995-1.2509c1.1387-0.35268 2.165-0.76307 3.2398-1.2509l-0.0675 0.4733 0.53996 0.37188 0.94494-0.64234-0.47247-0.54091-0.64121 0.37188-0.20249-0.067613c0.04651-0.02129 0.08828-0.045973 0.13499-0.067613l0.944-2.4341-2.058-0.8113zm-9.2469 3.6512 0.7762 0.54091h0.64121v-0.64234l-0.7762-0.33807-0.64121 0.43949zm17.92-0.43949-1.3837 0.33807-0.87744 0.57472v0.50711l-1.3837 0.87898 0.26998 1.3185 0.80995-0.57472 0.50622 0.57472 0.57371 0.33807 0.37122-0.98041-0.20249-0.57472 0.20249-0.40569 0.80995-0.74376h0.37122l-0.37122 0.81137v0.74375c0.33384-0.09103 0.6708-0.12648 1.0124-0.16904l-0.94494 0.67614-0.0675 0.40568-1.0799 0.91279-1.1137-0.27046v-0.64234l-0.50622 0.33807 0.23624 0.57472h-0.80995l-0.43872 0.74376-0.53996 0.60853-0.97868 0.20284 0.57371 0.57472 0.13499 0.57472h-0.7087l-0.94494 0.50711v1.4875h0.43872l0.40497 0.43949 0.91119-0.43949 0.33748-0.91279 0.67496-0.40568 0.13499-0.33807 1.0799-0.27046 0.60746 0.67614 0.64121 0.33807-0.37123 0.74376 0.57372-0.16904 0.30373-0.74376-0.74245-0.84518h0.30373l0.74245 0.60853 0.13499 0.81137 0.64121 0.74376 0.16874-1.0818 0.33748-0.16904c0.35922 0.37357 0.64238 0.83043 0.94494 1.2509l1.1137 0.06762 0.64121 0.40569-0.30373 0.43949-0.64121 0.57472h-0.94494l-1.2487-0.40568-0.64121 0.06762-0.47247 0.54092-1.3499-1.3523-0.94494-0.27046-1.3837 0.16904-1.2149 0.33807c-0.69306 0.7871-1.4026 1.5829-2.0586 2.4003l-0.7762 1.8932 0.37123 0.40569-0.67496 0.98041 0.74245 1.7242c0.6178 0.70009 1.2392 1.3955 1.8561 2.096l0.91119-0.77756 0.37123 0.4733 0.97869-0.64234 0.33748 0.37188h0.97868l0.57371 0.64234-0.33748 1.1494 0.67496 0.77756-0.03375 1.3523 0.50622 0.98041-0.37122 0.84518c-0.03619 0.60617-0.0675 1.1855-0.0675 1.7918 0.29776 0.82134 0.59628 1.6407 0.87744 2.4679l0.20249 1.3185v0.67614h0.53996l0.7762-0.50711h0.94494l1.4174-1.5889-0.16874-0.54092 0.94494-0.84518-0.7087-0.77756 0.84369-0.67614 0.80995-0.50711 0.37122-0.40568-0.23623-0.91279c0-0.76848 0.000002-1.5303 0-2.2989l0.64121-1.4199 0.80994-0.87898 0.87744-2.1637v-0.57472c-0.43664 0.0551-0.85517 0.10478-1.2824 0.13523l0.87744-0.87899 1.2149-0.81137 0.64121-0.74376v-0.81137c-0.14543-0.27475-0.2923-0.57043-0.43872-0.84518l-0.57371 0.67614-0.43872-0.5071-0.64121-0.50711v-1.048l0.74245 0.84518 0.8437-0.10142c0.38062 0.34614 0.74609 0.65392 1.0799 1.048l0.53998-0.60854c0-0.65513-0.73657-3.8893-2.3286-6.6262-1.592-2.736-4.3872-5.2401-4.3872-5.2401l-0.20249 0.37188-0.74245 0.81137-0.94494-0.98041h0.94494l0.43872-0.4733-1.756-0.337-0.911-0.3381zm-20.283 0.4394-0.337 0.8786s-0.59084 0.09772-0.74245 0.13523c-1.9362 1.7873-5.8407 5.6642-6.7496 12.948 0.035987 0.16888 0.64121 1.1494 0.64121 1.1494l1.4849 0.87899 1.4849 0.40568 0.64121 0.77756 0.97869 0.74376 0.57371-0.10142 0.40497 0.20284v0.13523l-0.53996 1.5213-0.43872 0.64234 0.13499 0.30426-0.33748 1.2171 1.2487 2.2989 1.2824 1.1156 0.57371 0.81137-0.0675 1.6904 0.40497 0.9466-0.40497 1.8256s-0.05404-0.01501 0 0.16904c0.05452 0.18413 2.2559 1.4228 2.3961 1.3185 0.13968-0.1063 0.26998-0.20284 0.26998-0.20284l-0.13499-0.40568 0.57371-0.54091 0.20249-0.57472 0.91119-0.30426 0.7087-1.758-0.20249-0.4733 0.47247-0.74376 1.0799-0.23665 0.53996-1.2847-0.13499-1.5889 0.8437-1.1832 0.13499-1.2171c-1.1576-0.57505-2.2933-1.1659-3.4423-1.758l-0.57371-1.1156-1.0462-0.23665-0.57371-1.5213-1.3837 0.16904-1.2149-0.87898-1.2824 1.1156v0.16904c-0.385-0.11-0.84-0.127-1.1817-0.337l-0.26998-0.81137v-0.87898l-0.87744 0.10142c0.070612-0.55989 0.16513-1.1306 0.23623-1.6904h-0.50622l-0.50622 0.64234-0.47247 0.23665-0.7087-0.40568-0.067496-0.87898 0.13499-0.9466 1.0462-0.81137h0.84369l0.16874-0.4733 1.0462 0.23665 0.7762 0.98041 0.13499-1.6227 1.3499-1.1156 0.47247-1.1832 1.0124-0.40568 0.53996-0.81137 1.2824-0.23665 0.64121-0.9466h-1.9236l1.2149-0.57472h0.84369l1.0799-0.37188 0.20249 1.048 0.47247-0.74376-0.53997-0.37188 0.13499-0.43949-0.43872-0.40569-0.47247-0.13523 0.13499-0.50711-0.37123-0.70995-0.8437 0.33807 0.13499-0.64233-0.97869-0.57472-0.7762 1.3523 0.0675 0.4733-0.7762 0.33807-0.47247 1.048-0.23623-0.98041-1.3162-0.54091-0.23623-0.74376 1.7886-1.0142 0.7762-0.74376 0.0675-0.87898-0.43872-0.23665-0.57371-0.067613zm14.478 1.6227v0.54091l0.30373 0.33807v0.81137l-0.16874 1.0818 0.87744-0.16904 0.64121-0.64233-0.57371-0.54092c-0.18605-0.49631-0.3746-0.94387-0.60746-1.4199h-0.47247zm-0.74245 1.0818-0.53996 0.16904 0.13499 0.9804 0.7087-0.37188-0.30373-0.77756zm9.8881 8.8913 0.80995 0.9466 0.97869 2.096 0.60746 0.67614-0.30373 0.70995 0.53996 0.64234c-0.24779 0.01643-0.48776 0.03381-0.74245 0.03381-0.46267-0.97394-0.82884-1.9561-1.1812-2.975l-0.60746-0.67614-0.33748-1.2171 0.23624-0.23665z"/>
  <path id="path10380-0-8" d="m8.5586 9.6365s0.22199 2.6995 2.1169 3.825c2.1034-0.60153 4.596 0.0141 4.596 0.0141s1.6648-2.2351 5.3404-2.2529c-2.6559 1.6728-2.696 3.9111-2.696 3.9111 0.74977 1.5094 1.1262 1.7936 4.0099 1.7467 1.4863-0.02419 1.5858 0.04885 1.1847 1.4885-0.2992 1.0741-2.8051 1.4499-3.7972 2.901 0.39765 1.5575 0.31989 2.8591 0.31989 2.8591-4.5546-2.2184-5.221 3.8125-0.06926 3.8125 2.2051 0 5.8216-3.1282 8.4119-0.02603 0.94618 1.1332-1.1247 0.87616-1.7467 1.1847-1.9093 0.94717-2.3717 3.6337-7.5842 3.2878 18.634 7.472 25.146-18.182 12.217-25.647 9.239 3.6776 12.557 11.708 12.654 18.113 0 12.121-9.8147 19.676-19.518 19.676s-19.518-7.5548-19.518-19.577c0-4.8027 1.8642-8.2627 1.8642-8.2627-0.21549-5.9727 2.2142-7.0545 2.2142-7.0545z" stroke="url(#linearGradient9938)" fill="url(#radialGradient9914)"/>
  <path id="path8655" opacity=".5" stroke-linejoin="round" style="color:#000000" d="m10.609 12.236c0.1021-0.10709 0.20548-0.21295 0.3101-0.31756 3.3479-3.3477 7.9729-5.4182 13.082-5.4182 10.216 0 18.5 8.2822 18.5 18.499-0.001 10.218-8.284 18.501-18.501 18.501s-18.5-8.283-18.5-18.501" stroke="url(#linearGradient3906-0)" stroke-linecap="round" fill="none"/>
  <path id="path9948" stroke-linejoin="round" opacity=".5" d="m35.031 9.5c1.3712 1.8251 2.4077 3.534 2.9688 4.9062 0.94378 2.3085 1 3.875 1 3.875a0.90819 0.90819 0 0 1 -1.375 0.8125c0.52176 3.1827 0.78125 6.2188 0.78125 6.2188a0.90819 0.90819 0 0 1 -1.531 0.687c-0.07997 2.2994-0.47167 4.1306-1.125 5.2188-0.44334 0.73841-0.92254 1.25-1.3125 1.5625-0.38996 0.31249-0.75 0.46875-0.75 0.46875a0.90819 0.90819 0 0 1 -1.25 -0.84375c-1.6899 1.6532-3.5854 2.7909-5.5938 3.2188-2.9841 0.63578-6.1217-0.17774-8.9062-2.3438a0.90819 0.90819 0 0 1 0.625 -1.625c2.5137 0.16681 3.675-0.34131 4.5625-1 0.88747-0.65869 1.4915-1.6569 2.75-2.2812 0.33323-0.16531 0.59046-0.186 0.84375-0.21875-0.3191-0.22678-0.63319-0.55994-0.96875-0.625-0.5602-0.10861-1.2124-0.05827-1.9062 0.125-1.3878 0.36654-2.8151 1.25-4.375 1.25-2.994 0-4.7299-1.9183-4.5938-3.7812 0.06806-0.93147 0.64432-1.8318 1.5938-2.2188 0.57779-0.23547 1.2683-0.20533 2-0.0625-0.02691-0.4924 0.04667-0.67395-0.15625-1.4688a0.90819 0.90819 0 0 1 0.125 -0.71875c0.69019-1.0095 1.7501-1.5181 2.5625-1.9375 0.40622-0.20968 0.74917-0.40666 0.96875-0.5625s0.25815-0.248 0.25-0.21875c0.04721-0.16948 0.03445-0.22436 0.0625-0.34375-0.132-0.0028-0.21221-0.03441-0.40625-0.03125-1.5072 0.02452-2.423 0.002-3.25-0.375-0.82695-0.37703-1.2851-1.0961-1.6875-1.9062a0.90819 0.90819 0 0 1 -0.09375 -0.4375s0.01827-0.75989 0.4375-1.6875c0.11036-0.24418 0.32845-0.54443 0.5-0.8125-1.3384 0.57525-2 1.375-2 1.375a0.90819 0.90819 0 0 1 -0.9375 0.34375s-2.4392-0.54913-4.25-0.03125a0.90819 0.90819 0 0 1 -0.719 -0.094c-1.2071-0.717-1.8892-1.836-2.2812-2.782-0.4412 0.883-0.8831 2.459-0.7813 5.282a0.90819 0.90819 0 0 1 -0.09375 0.46875s-1.8125 3.3438-1.8125 8.0312c0 11.826 9.6213 19.156 19.094 19.156 9.4729 0 19.094-7.3185 19.094-19.25-0.079-5.126-2.287-11.278-8.064-15.344z" xlink:href="#path10380-0-8" stroke="url(#radialGradient9962)" fill="none"/>
 </g>
</svg>
