<?xml version="1.0" encoding="UTF-8" standalone="no"?>
<!-- Created with Inkscape (http://www.inkscape.org/) -->
<svg id="svg4248" xmlns:rdf="http://www.w3.org/1999/02/22-rdf-syntax-ns#" xmlns="http://www.w3.org/2000/svg" height="32" width="32" version="1.1" xmlns:cc="http://creativecommons.org/ns#" xmlns:xlink="http://www.w3.org/1999/xlink" xmlns:dc="http://purl.org/dc/elements/1.1/">
 <defs id="defs4250">
  <radialGradient id="radialGradient4246" gradientUnits="userSpaceOnUse" cy="4.625" cx="62.625" gradientTransform="matrix(1.5059 0 0 .37647 -78.306 26.259)" r="10.625">
   <stop id="stop8840" offset="0"/>
   <stop id="stop8842" stop-opacity="0" offset="1"/>
  </radialGradient>
  <radialGradient id="radialGradient3669" gradientUnits="userSpaceOnUse" cx="6.2973" cy="8.4498" r="20" gradientTransform="matrix(0 .99553 -1.0531 -2.7097e-8 24.925 -4.738)">
   <stop id="stop3750-8-9" stop-color="#90dbec" offset="0"/>
   <stop id="stop3752-3-2" stop-color="#42baea" offset=".26238"/>
   <stop id="stop3754-7-2" stop-color="#3689e6" offset=".70495"/>
   <stop id="stop3756-9-3" stop-color="#2b63a0" offset="1"/>
  </radialGradient>
  <linearGradient id="linearGradient3671" y2="3.899" gradientUnits="userSpaceOnUse" y1="44" gradientTransform="matrix(.74282 0 0 .74282 -1.8017 -1.8521)" x2="24" x1="24">
   <stop id="stop3760-7-3" stop-color="#185f9a" offset="0"/>
   <stop id="stop3762-8-4" stop-color="#599ec9" offset="1"/>
  </linearGradient>
  <linearGradient id="linearGradient4533" y2="44.341" gradientUnits="userSpaceOnUse" x2="71.204" gradientTransform="matrix(.72920 0 0 .73077 -36.28 -2.5118)" y1="6.2376" x1="71.204">
   <stop id="stop4013-5" stop-color="#fff" offset="0"/>
   <stop id="stop4015-0" stop-color="#fff" stop-opacity=".23529" offset=".50776"/>
   <stop id="stop4017-5" stop-color="#fff" stop-opacity=".15686" offset=".83457"/>
   <stop id="stop4019-6" stop-color="#fff" stop-opacity=".39216" offset="1"/>
  </linearGradient>
  <radialGradient id="radialGradient4535" gradientUnits="userSpaceOnUse" cy="16.569" cx="16.768" gradientTransform="matrix(.87369 0 0 .86412 1.0886 1.4819)" r="19.594">
   <stop id="stop9952" stop-color="#fff" stop-opacity=".15686" offset="0"/>
   <stop id="stop9960" stop-color="#fff" stop-opacity=".23529" offset=".43016"/>
   <stop id="stop9958" stop-color="#fff" stop-opacity=".39216" offset=".94998"/>
   <stop id="stop9954" stop-color="#fff" offset="1"/>
  </radialGradient>
  <radialGradient id="radialGradient4537" fy="22.504" gradientUnits="userSpaceOnUse" cy="26.141" cx="21.12" gradientTransform="matrix(0 .74569 -.81703 0 37.384 .25962)" r="20.002">
   <stop id="stop9910" stop-color="#ffca51" offset="0"/>
   <stop id="stop9926" stop-color="#ffbb39" offset=".39939"/>
   <stop id="stop9928" stop-color="#ff780b" offset=".77552"/>
   <stop id="stop9912" stop-color="#ff6201" offset="1"/>
  </radialGradient>
  <linearGradient id="linearGradient4539" y2="44.332" gradientUnits="userSpaceOnUse" x2="32.438" gradientTransform="matrix(.72485 0 0 .72659 -1.3706 -2.1449)" y1="8.5399" x1="21.375">
   <stop id="stop9946" stop-color="#de6300" offset="0"/>
   <stop id="stop9944" stop-color="#d04e00" offset="1"/>
  </linearGradient>
 </defs>
 <metadata id="metadata4253">
  <rdf:RDF>
   <cc:Work rdf:about="">
    <dc:format>image/svg+xml</dc:format>
    <dc:type rdf:resource="http://purl.org/dc/dcmitype/StillImage"/>
    <dc:title/>
   </cc:Work>
  </rdf:RDF>
 </metadata>
 <g id="layer1">
  <path id="path8836" opacity=".3" d="m32 28c0 2.2091-7.1634 4-16 4s-16-1.791-16-4c0-2.2091 7.1634-4 16-4s16 1.7909 16 4z" fill-rule="evenodd" fill="url(#radialGradient4246)"/>
 </g>
 <g id="g4524">
  <path id="path2555" stroke-linejoin="round" style="color:#000000" d="m16.026 1.4919c-7.9916 0-14.484 6.4921-14.484 14.484 0 7.9916 6.4921 14.484 14.484 14.484 7.9916 0 14.484-6.4921 14.484-14.484 0-7.9916-6.4921-14.484-14.484-14.484z" stroke="url(#linearGradient3671)" stroke-linecap="round" fill="url(#radialGradient3669)"/>
  <path id="path6534-3" opacity=".4" d="m16.271 2.0241-1.7548 0.2009-1.9303 0.52736c0.16442-0.05765 0.331-0.12059 0.50137-0.17579l-0.226-0.4018-0.752 0.1256-0.376 0.3516-0.576 0.0753-0.527 0.2511-0.25 0.1256-0.076 0.1004-0.3755 0.0754-0.2257 0.4771-0.3008-0.6027-0.1003 0.2511 0.050141 0.67804-0.4763 0.4018-0.27575 0.72826h0.57658l0.22562-0.47714 0.075207-0.17579c0.2535-0.1796 0.4939-0.3796 0.7518-0.5525l0.60164 0.2009c0.39171 0.2666 0.78618 0.53741 1.1782 0.8036l0.577-0.5273-0.652-0.2763-0.301-0.6027-1.103-0.1255-0.025-0.1256 0.476 0.1005 0.276-0.2763 0.602-0.1255c0.14238-0.069365 0.28243-0.11933 0.42616-0.17579l-0.37603 0.35158 1.3537 0.92916v0.55248l-0.527 0.5273 0.702 1.4064 0.476-0.2763 0.602-0.9292c0.846-0.2619 1.608-0.5668 2.407-0.9291l-0.051 0.3516 0.402 0.2762 0.701-0.4771-0.351-0.4018-0.476 0.2762-0.15-0.0502c0.03455-0.015815 0.06557-0.034148 0.10027-0.050221l0.702-1.8082-1.529-0.6027zm-6.8688 2.7122 0.57658 0.4018h0.4763v-0.47714l-0.5767-0.2512-0.4763 0.3265zm13.311-0.32646-1.0278 0.25113-0.65178 0.42691v0.37669l-1.0278 0.65293 0.20055 0.97939 0.60164-0.42692 0.37602 0.42692 0.42617 0.25113 0.27575-0.72827-0.15041-0.42691 0.15041-0.30135 0.60165-0.55248h0.27575l-0.27575 0.6027v0.55247c0.24798-0.067619 0.49828-0.093954 0.75206-0.12556l-0.70192 0.50225-0.05013 0.30135-0.80219 0.67804-0.82726-0.2009v-0.47714l-0.37603 0.25113 0.17548 0.42691h-0.60164l-0.32589 0.55248-0.4011 0.45203-0.72699 0.15067 0.42616 0.42691 0.10027 0.42691h-0.52644l-0.70192 0.37669v1.105h0.32589l0.30082 0.32646 0.67685-0.32646 0.25069-0.67804 0.50137-0.30135 0.10028-0.25113 0.80219-0.2009 0.45124 0.50225 0.4763 0.25112-0.27576 0.55248 0.42617-0.12556 0.22562-0.55248-0.55151-0.62781h0.22562l0.55151 0.45203 0.10027 0.6027 0.4763 0.55248 0.12534-0.8036 0.25069-0.12556c0.26684 0.2775 0.47717 0.61686 0.70192 0.92916l0.82726 0.05023 0.4763 0.30135-0.22562 0.32646-0.4763 0.42691h-0.70192l-0.92753-0.30135-0.4763 0.05023-0.35096 0.4018-1.0027-1.0045-0.70192-0.2009-1.0278 0.12556-0.90247 0.25112c-0.51482 0.58467-1.0419 1.1758-1.5292 1.783l-0.57658 1.4063 0.27575 0.30135-0.50137 0.72826 0.55151 1.2807c0.45891 0.52004 0.92052 1.0366 1.3788 1.557l0.67685-0.57759 0.27575 0.35158 0.72699-0.47714 0.25068 0.27624h0.72699l0.42616 0.47714-0.25069 0.85382 0.50137 0.57759-0.02507 1.0045 0.37603 0.72826-0.27575 0.62782c-0.02688 0.45027-0.05013 0.88062-0.05013 1.331 0.22118 0.61011 0.44293 1.2187 0.65178 1.8332l0.15041 0.97939v0.50225h0.40109l0.57658-0.37669h0.70192l1.0529-1.1803-0.12534-0.4018 0.70192-0.62781-0.52644-0.57759 0.62671-0.50225 0.60164-0.37669 0.27576-0.30135-0.17548-0.67804v-1.7077l0.4763-1.0547 0.60164-0.65292 0.65178-1.6072v-0.42691c-0.32435 0.04093-0.63524 0.07784-0.9526 0.10045l0.65178-0.65293 0.90247-0.6027 0.4763-0.55248v-0.6027c-0.10805-0.20408-0.21715-0.42371-0.32592-0.6278l-0.42616 0.50225-0.32589-0.37669-0.4763-0.37669v-0.77849l0.55151 0.62782 0.62671-0.07535c0.28273 0.25712 0.55421 0.48574 0.80219 0.77849l0.40111-0.45204c0-0.48664-0.54714-2.8891-1.7297-4.9221-1.1826-2.0323-3.2589-3.8924-3.2589-3.8924l-0.15041 0.27624-0.55151 0.6027-0.70192-0.72826h0.70192l0.326-0.3491-1.304-0.2511-0.677-0.2512zm-15.066 0.3265-0.2507 0.6529s-0.43889 0.072588-0.55151 0.10045c-1.4382 1.3277-4.3385 4.2075-5.0137 9.6184 0.026734 0.12545 0.4763 0.85382 0.4763 0.85382l1.103 0.65293 1.103 0.30135 0.4763 0.57759 0.72699 0.55248 0.42616-0.07533 0.30082 0.15068v0.10044l-0.4011 1.1301-0.32589 0.47714 0.10027 0.22601-0.25068 0.90405 0.92753 1.7077 0.9526 0.82871 0.42616 0.6027-0.050141 1.2556 0.30082 0.70315-0.30082 1.3561s-0.040142-0.01115 0 0.12556c0.040499 0.13678 1.6758 1.0569 1.7799 0.97939 0.10376-0.07896 0.20055-0.15068 0.20055-0.15068l-0.10027-0.30135 0.42616-0.4018 0.15041-0.42691 0.67685-0.22601 0.52644-1.3059-0.15041-0.35158 0.35096-0.55248 0.80219-0.17579 0.4011-0.95428-0.10027-1.1803 0.62671-0.87894 0.10027-0.90405c-0.86-0.427-1.703-0.866-2.557-1.306l-0.426-0.829-0.777-0.175-0.4262-1.131-1.0278 0.126-0.9025-0.653-0.9526 0.829v0.12556c-0.28532-0.0825-0.62333-0.09464-0.87739-0.25113l-0.20055-0.6027v-0.65293l-0.65178 0.07534c0.05245-0.41589 0.12266-0.8398 0.17548-1.2556h-0.37603l-0.37603 0.47714-0.35096 0.17579-0.52644-0.30135-0.050141-0.65293 0.10027-0.70315 0.77712-0.6027h0.62671l0.12534-0.35158 0.77712 0.17579 0.57658 0.72826 0.10027-1.2054 1.0027-0.82871 0.35096-0.87894 0.75206-0.30135 0.4009-0.603 0.9526-0.1763 0.476-0.7031h-1.4289l0.90247-0.42691h0.62671l0.80219-0.27624 0.15041 0.77849 0.351-0.5525-0.401-0.2762 0.1-0.3265-0.326-0.3013-0.351-0.1005 0.101-0.3767-0.276-0.5273-0.6268 0.2511 0.1003-0.4771-0.727-0.427-0.5765 1.0045 0.0501 0.3516-0.5766 0.2511-0.3509 0.7785-0.1755-0.7282-0.9777-0.4018-0.1755-0.5525 1.3287-0.7534 0.5765-0.5525 0.0502-0.6529-0.3259-0.1758-0.4262-0.0502zm10.754 1.2054v0.4018l0.22562 0.25113v0.6027l-0.125 0.8036 0.652-0.1255 0.476-0.4772-0.426-0.4018c-0.138-0.3686-0.278-0.7011-0.451-1.0547h-0.35096zm-0.55151 0.8036-0.4011 0.12556 0.10028 0.72826 0.52644-0.27624-0.22562-0.57759zm7.3451 6.6046 0.60164 0.70315 0.72699 1.557 0.45123 0.50225-0.22562 0.52737 0.4011 0.47714c-0.18406 0.01221-0.36232 0.02512-0.55151 0.02512-0.34368-0.72346-0.61568-1.4531-0.8774-2.2099l-0.45123-0.50226-0.25068-0.90405 0.17548-0.17579z"/>
  <path id="path10380-0-8" d="m4.5558 4.5684s0.16489 2.0101 1.5725 2.8481c1.5624-0.44791 3.414 0.010499 3.414 0.010499s1.2366-1.6643 3.967-1.6775c-1.9728 1.2456-2.0027 2.9122-2.0027 2.9122 0.55694 1.1239 0.83654 1.3355 2.9786 1.3006 1.1041-0.018005 1.1779 0.036383 0.88004 1.1083-0.22225 0.79979-2.0837 1.0796-2.8207 2.1601 0.29538 1.1597 0.23762 2.129 0.23762 2.129-3.3833-1.6519-3.8783 2.8388-0.05145 2.8388 1.638 0 4.3244-2.3293 6.2486-0.01939 0.70284 0.84376-0.83548 0.6524-1.2975 0.88215-1.4183 0.70527-1.7617 2.7057-5.6337 2.4481 13.842 5.5637 18.679-13.539 9.0749-19.097 6.8629 2.7384 9.3277 8.7179 9.4 13.487 0 9.0254-7.2905 14.651-14.498 14.651-7.2078 0-14.498-5.6254-14.498-14.577 0-3.5762 1.3848-6.1525 1.3848-6.1525-0.16007-4.4474 1.6447-5.2529 1.6447-5.2529z" stroke="url(#linearGradient4539)" fill="url(#radialGradient4537)"/>
  <path id="path8655" opacity=".5" stroke-linejoin="round" style="color:#000000" d="m6.4889 6.4588c2.4413-2.4464 5.8141-3.9595 9.5391-3.9595 7.4498 0 13.49 6.0524 13.49 13.519 0 7.4667-6.0402 13.52-13.49 13.52-7.4505 0-13.49-6.0531-13.49-13.52" stroke="url(#linearGradient4533)" stroke-linecap="round" fill="none"/>
  <path id="path9948" opacity=".5" d="m4.25 6.5625c-0.2595 0.6572-0.4964 1.5833-0.4375 3.2187 0.0112 0.1609-0.0216 0.3248-0.0937 0.4688 0 0-1.2812 2.375-1.2812 5.7188 0 8.4595 6.8591 13.688 13.594 13.688 6.7356 0 13.594-5.213 13.594-13.75-0.04461-2.9434-1.1836-6.3168-3.7188-9.0625 1.4828 3.0554 1.4519 6.5463 0.34375 9.5938-0.93363 2.5676-2.6926 4.8164-5.1875 6.0312s-5.6998 1.3397-9.3438-0.125c-0.40482-0.15472-0.65754-0.6299-0.55954-1.052 0.098-0.42215 0.53421-0.73739 0.96579-0.69795 1.7799 0.1184 2.5262-0.24265 3.125-0.6875 0.59884-0.44485 1.0432-1.1649 2.0312-1.6562 0.06735-0.03349 0.09737-0.0093 0.15625-0.03125-0.06254-0.01956-0.12272-0.1122-0.1875-0.125-0.35629-0.07038-0.79579-0.03171-1.2812 0.09375-0.97092 0.25092-2.0048 0.90625-3.25 0.90625-2.266 0-3.6808-1.4863-3.5625-3 0.059136-0.75684 0.53821-1.5013 1.3125-1.8125 0.38714-0.15559 0.82507-0.2052 1.2812-0.15625-0.03214-0.29578-0.000025-0.31952-0.09375-0.6875-0.05993-0.24299-0.01345-0.51026 0.125-0.71875 0.55095-0.8078 1.345-1.1952 1.9375-1.5 1.5258-0.50401-0.87239-0.05747-1.6875-0.65625-0.67143-0.31243-1.047-0.90125-1.3438-1.5-0.0621-0.12573-0.09448-0.26602-0.09375-0.40625 0 0-0.02438-0.45544 0.25-1.125-0.433 0.1771-0.595 0.4362-0.595 0.4362-0.209 0.2835-0.5944 0.4246-0.9375 0.3437 0 0-1.7214-0.37988-2.9375-0.03125-0.2388 0.0691-0.5057 0.0343-0.7188-0.0937-0.7207-0.4291-1.1105-1.0361-1.4062-1.625z" stroke="url(#radialGradient4535)" fill="none"/>
 </g>
</svg>
