<?xml version="1.0" encoding="UTF-8" standalone="no"?>
<!-- Created with Inkscape (http://www.inkscape.org/) -->

<svg
   xmlns:dc="http://purl.org/dc/elements/1.1/"
   xmlns:cc="http://creativecommons.org/ns#"
   xmlns:rdf="http://www.w3.org/1999/02/22-rdf-syntax-ns#"
   xmlns:svg="http://www.w3.org/2000/svg"
   xmlns="http://www.w3.org/2000/svg"
   xmlns:xlink="http://www.w3.org/1999/xlink"
   version="1.1"
   width="48"
   height="48"
   id="svg3071">
  <metadata
     id="metadata3136">
    <rdf:RDF>
      <cc:Work
         rdf:about="">
        <dc:format>image/svg+xml</dc:format>
        <dc:type
           rdf:resource="http://purl.org/dc/dcmitype/StillImage" />
        <dc:title></dc:title>
      </cc:Work>
    </rdf:RDF>
  </metadata>
  <defs
     id="defs3073">
    <linearGradient
       x1="71.811333"
       y1="-31.516607"
       x2="71.811333"
       y2="46.160946"
       id="c"
       gradientUnits="userSpaceOnUse"
       gradientTransform="matrix(1.617,0,0,1.617,-92.707,-21.06)">
      <stop
         id="stop3076"
         style="stop-color:#ffffff;stop-opacity:1"
         offset="0" />
      <stop
         id="stop3078"
         style="stop-color:#ffffff;stop-opacity:0.23529001"
         offset="0.42447999" />
      <stop
         id="stop3080"
         style="stop-color:#ffffff;stop-opacity:0.15685999"
         offset="0.82090002" />
      <stop
         id="stop3082"
         style="stop-color:#ffffff;stop-opacity:0.39216"
         offset="1" />
    </linearGradient>
    <radialGradient
       cx="23.896"
       cy="3.99"
       r="20.396999"
       id="b"
       gradientUnits="userSpaceOnUse"
       gradientTransform="matrix(0,2.8885,-3.8128,0,39.213,-65.95)">
      <stop
         id="stop3085"
         style="stop-color:#8381c5;stop-opacity:1"
         offset="0" />
      <stop
         id="stop3087"
         style="stop-color:#816ebd;stop-opacity:1"
         offset="0.26238" />
      <stop
         id="stop3089"
         style="stop-color:#933fc0;stop-opacity:1"
         offset="0.66093999" />
      <stop
         id="stop3091"
         style="stop-color:#933fc0;stop-opacity:1"
         offset="1" />
    </radialGradient>
    <radialGradient
       cx="99.156998"
       cy="186.17"
       r="62.769001"
       id="a"
       gradientUnits="userSpaceOnUse"
       gradientTransform="matrix(0.27083,0,0,0.087623,-2.8551,25.187)">
      <stop
         id="stop3094"
         style="stop-color:#3d3d3d;stop-opacity:1"
         offset="0" />
      <stop
         id="stop3096"
         style="stop-color:#686868;stop-opacity:0.49803999"
         offset="0.5" />
      <stop
         id="stop3098"
         style="stop-color:#686868;stop-opacity:0"
         offset="1" />
    </radialGradient>
    <linearGradient
       x1="-26.882"
       y1="26.209999"
       x2="103.56"
       y2="26.209999"
       id="d"
       gradientUnits="userSpaceOnUse">
      <stop
         id="stop3101"
         style="stop-color:#000000;stop-opacity:1"
         offset="0" />
      <stop
         id="stop3103"
         style="stop-color:#000000;stop-opacity:0"
         offset="1" />
    </linearGradient>
    <linearGradient
       x1="-204.67999"
       y1="-33.397999"
       x2="-204.67999"
       y2="85.819"
       id="e"
       gradientUnits="userSpaceOnUse">
      <stop
         id="stop3106"
         style="stop-color:#ffffff;stop-opacity:1"
         offset="0" />
      <stop
         id="stop3108"
         style="stop-color:#cee7dd;stop-opacity:1"
         offset="1" />
    </linearGradient>
    <radialGradient
       cx="27.346893"
       cy="7.3902345"
       r="20.396999"
       fx="27.346893"
       fy="7.3902345"
       id="radialGradient3138"
       xlink:href="#b"
       gradientUnits="userSpaceOnUse"
       gradientTransform="matrix(-9.4892673e-8,2.8885001,-3.459462,0,39.355064,-64.843897)" />
  </defs>
  <path
     d="m 41,41.5 a 17,5.5 0 0 1 -34,0 17,5.5 0 1 1 34,0 z"
     id="path3110"
     style="fill:url(#a)" />
  <g
     id="g3112">
    <path
       d="M 24,3.5 C 12.689,3.5 3.5,12.689 3.5,24 3.5,35.311 12.689,44.5 24,44.5 35.311,44.5 44.5,35.311 44.5,24 44.5,12.689 35.311,3.5 24,3.5 z"
       id="path3114"
       style="color:#000000;fill:url(#radialGradient3138);stroke:none" />
    <path
       d="M 43.5,24 C 43.5,34.77 34.77,43.5 24,43.5 13.23,43.5 4.5,34.77 4.5,24 4.5,13.23 13.23,4.5 24,4.5 34.77,4.5 43.5,13.23 43.5,24 z"
       id="path3116"
       style="opacity:0.8;color:#000000;fill:none;stroke:url(#c);stroke-linecap:round;stroke-linejoin:round" />
    <path
       d="M 24,3.5 C 12.689,3.5 3.5,12.689 3.5,24 3.5,35.311 12.689,44.5 24,44.5 35.311,44.5 44.5,35.311 44.5,24 44.5,12.689 35.311,3.5 24,3.5 z"
       id="path3118"
       style="opacity:0.7;color:#000000;fill:none;stroke:#763fc0;stroke-opacity:1" />
    <path
       d="m 20.83512,10.677965 c 0,0 5.169844,-2.0440844 7.944541,-1.9830498 0.889575,0.019568 2.069251,0.046803 2.79661,0.5593221 0.593024,0.417862 1.067163,1.0496037 1.322034,1.7288137 0.274496,0.731511 0.24313,1.615081 -0.05085,2.338983 -0.352196,0.867262 -0.892877,1.327449 -1.77966,1.627119 -1.500922,0.507206 -1.334938,0.381356 -1.334938,0.381356 0,0 -3.696736,0.08141 -7.766758,0.68644 -0.31632,0.04702 -0.965852,0.261512 -1.165878,0.460183 -0.216793,0.215325 -0.487619,0.520245 -0.383162,0.80739 0.148067,0.407021 0.154319,0.789573 1.803278,1.68158 0.958408,0.518452 2.084746,1.118644 2.084746,1.118644 l 3.508474,1.627118 1.70339,0.915254 1.398305,0.711865 -6.406779,1.728814 c 0,0 -2.32237,0.677888 -3.406781,1.194915 -0.538958,0.256965 -1.177161,0.47192 -1.627118,0.864407 -0.397805,0.346996 -0.745339,0.49731 -1.067796,0.915254 -0.209642,0.271721 -0.534993,0.776313 -0.559322,1.118644 -0.03441,0.484129 0.283152,0.861224 0.635593,1.194915 0.83421,0.789829 2.076665,1.021649 3.20339,1.245764 1.113898,0.221564 3.508475,0.381362 3.508475,0.381362 0,0 3.343431,0.01527 6.025423,0.177966 0.662594,0.04019 2.376057,0.229858 2.923729,0.381356 0.451034,0.124765 1.353147,0.336855 1.474576,0.838983 0.107271,0.443583 -0.155993,1.015332 -0.533898,1.271186 -0.322806,0.21855 -0.911698,0.536371 -1.245764,0.737289 -0.693396,0.417029 -1.169968,0.631696 -2.18644,0.915254 -1.485739,0.414465 -2.811122,0.829176 -4.245762,1.118644 -1.778665,0.358882 -3.580248,0.629089 -5.389831,0.762712 -1.597383,0.117954 -4.805084,0.03287 -4.805084,0.03287 0,0 3.63188,-0.956482 5.369297,-1.293527 1.972411,-0.382631 3.346191,-0.841422 5.384411,-1.410112 0.520579,-0.145249 1.675969,-0.635364 1.72498,-0.909615 0.04562,-0.255301 -3.100883,0.144352 -4.652542,0.152542 -1.525779,0.0081 -3.064371,0.103792 -4.576271,-0.101697 C 19.093095,34.47089 17.706635,34.201731 16.411918,33.720592 14.884313,33.152904 13.227333,32.59757 12,31.525424 11.32023,30.931605 10.893176,30.25234 10.627118,29.389831 c -0.144885,-0.469687 -0.114719,-1.113471 0.05085,-1.576272 0.288018,-0.805082 0.766051,-1.436634 1.423729,-1.983051 1.190278,-0.988915 2.62408,-1.680156 4.067797,-2.237288 1.024041,-0.395178 3.203389,-0.762712 3.203389,-0.762712 l 4.271187,-0.355932 -2.694914,-1.067798 c 0,0 -1.72712,-0.565068 -3.864408,-2.237287 -2.137288,-1.672218 -2.694188,-2.048371 -2.949152,-3.711864 -0.0488,-0.318384 0.319202,-0.845549 0.661016,-1.169491 0.511686,-0.484934 1.585419,-0.85892 2.288136,-0.915255 2.129585,-0.170723 3.204884,-0.239426 5.79661,-0.508475 1.238043,-0.128522 3.634278,-0.254213 4.881356,-0.559321 0.391335,-0.09574 0.971366,-0.36723 0.762712,-0.966101 -0.1488,-0.427081 -1.022579,-0.62557 -1.474577,-0.61017 -1.985782,0.06766 -6.215727,-0.05085 -6.215729,-0.05085 z"
       id="path4060"
       style="fill:#ffffff;fill-opacity:1;stroke:none" />
  </g>
</svg>
