<?xml version="1.0" encoding="UTF-8" standalone="no"?>
<!-- Created with Inkscape (http://www.inkscape.org/) -->
<svg id="svg3946" xmlns:rdf="http://www.w3.org/1999/02/22-rdf-syntax-ns#" xmlns="http://www.w3.org/2000/svg" height="24" width="24" version="1.1" xmlns:cc="http://creativecommons.org/ns#" xmlns:xlink="http://www.w3.org/1999/xlink" xmlns:dc="http://purl.org/dc/elements/1.1/">
 <defs id="defs3948">
  <radialGradient id="radialGradient3944" gradientUnits="userSpaceOnUse" cy="4.625" cx="62.625" gradientTransform="matrix(1.1294 0 0 .28235 -58.729 27.694)" r="10.625">
   <stop id="stop8840" offset="0"/>
   <stop id="stop8842" stop-opacity="0" offset="1"/>
  </radialGradient>
  <radialGradient id="radialGradient3669" gradientUnits="userSpaceOnUse" cx="6.2973" cy="8.4498" r="20" gradientTransform="matrix(0 .99553 -1.0531 -2.7097e-8 24.925 -4.738)">
   <stop id="stop3750-8-9-5" stop-color="#90dbec" offset="0"/>
   <stop id="stop3752-3-2-4" stop-color="#42baea" offset=".26238"/>
   <stop id="stop3754-7-2-9" stop-color="#3689e6" offset=".70495"/>
   <stop id="stop3756-9-3-3" stop-color="#2b63a0" offset="1"/>
  </radialGradient>
  <linearGradient id="linearGradient3671" y2="3.899" gradientUnits="userSpaceOnUse" y1="44" gradientTransform="matrix(.74282 0 0 .74282 -1.8017 -1.8521)" x2="24" x1="24">
   <stop id="stop3760-7-3-3" stop-color="#185f9a" offset="0"/>
   <stop id="stop3762-8-4-3" stop-color="#599ec9" offset="1"/>
  </linearGradient>
  <radialGradient id="radialGradient4537" fy="22.504" gradientUnits="userSpaceOnUse" cy="26.141" cx="21.12" gradientTransform="matrix(0 .74569 -.81703 0 37.384 .25962)" r="20.002">
   <stop id="stop9910" stop-color="#ffca51" offset="0"/>
   <stop id="stop9926" stop-color="#ffbb39" offset=".39939"/>
   <stop id="stop9928" stop-color="#ff780b" offset=".77552"/>
   <stop id="stop9912" stop-color="#ff6201" offset="1"/>
  </radialGradient>
  <linearGradient id="linearGradient4539" y2="44.332" gradientUnits="userSpaceOnUse" x2="32.438" gradientTransform="matrix(.72485 0 0 .72659 -1.3706 -2.1449)" y1="8.5399" x1="21.375">
   <stop id="stop9946" stop-color="#de6300" offset="0"/>
   <stop id="stop9944" stop-color="#d04e00" offset="1"/>
  </linearGradient>
  <linearGradient id="linearGradient4533" y2="44.341" gradientUnits="userSpaceOnUse" x2="71.204" gradientTransform="matrix(.71378 0 0 .71132 -35.261 -2.0062)" y1="6.2376" x1="71.204">
   <stop id="stop4013-5" stop-color="#fff" offset="0"/>
   <stop id="stop4015-0" stop-color="#fff" stop-opacity=".23529" offset=".50776"/>
   <stop id="stop4017-5" stop-color="#fff" stop-opacity=".15686" offset=".83457"/>
   <stop id="stop4019-6" stop-color="#fff" stop-opacity=".39216" offset="1"/>
  </linearGradient>
  <radialGradient id="radialGradient4535" gradientUnits="userSpaceOnUse" cy="16.569" cx="16.768" gradientTransform="matrix(.87369 0 0 .86412 1.0886 1.4819)" r="19.594">
   <stop id="stop9952" stop-color="#fff" stop-opacity=".15686" offset="0"/>
   <stop id="stop9960" stop-color="#fff" stop-opacity=".23529" offset=".43016"/>
   <stop id="stop9958" stop-color="#fff" stop-opacity=".39216" offset=".94998"/>
   <stop id="stop9954" stop-color="#fff" offset="1"/>
  </radialGradient>
 </defs>
 <metadata id="metadata3951">
  <rdf:RDF>
   <cc:Work rdf:about="">
    <dc:format>image/svg+xml</dc:format>
    <dc:type rdf:resource="http://purl.org/dc/dcmitype/StillImage"/>
    <dc:title/>
   </cc:Work>
  </rdf:RDF>
 </metadata>
 <g id="layer1" transform="translate(0,-8)">
  <path id="path8836" opacity=".3" d="m24 29c0 1.6569-5.3726 3-12 3s-12-1.343-12-3c-2.5e-7 -1.657 5.3726-3 12-3s12 1.3431 12 3z" fill-rule="evenodd" fill="url(#radialGradient3944)"/>
 </g>
 <g id="g4524" transform="matrix(.72448 0 0 .72448 .39042 .39267)">
  <path id="path2555" stroke-linejoin="round" style="color:#000000" d="m16.026 1.4919c-7.9916 0-14.484 6.4921-14.484 14.484 0 7.9916 6.4921 14.484 14.484 14.484 7.9916 0 14.484-6.4921 14.484-14.484 0-7.9916-6.4921-14.484-14.484-14.484z" stroke="url(#linearGradient3671)" stroke-linecap="round" stroke-width="1.3803" fill="url(#radialGradient3669)"/>
  <path id="path6534-3" opacity=".4" d="m16.271 2.4212-1.7548 0.19789-1.9303 0.51946c0.16442-0.056786 0.331-0.11878 0.50137-0.17315l-0.22562-0.39578-0.75206 0.12368-0.37603 0.34631-0.57658 0.074209-0.52644 0.24736-0.25068 0.12368-0.07521 0.098946-0.3755 0.0742-0.2257 0.47-0.3008-0.5937-0.1003 0.2474 0.0502 0.6678-0.4763 0.3958-0.2758 0.7174h0.57658l0.22562-0.46999 0.075207-0.17315c0.2535-0.177 0.4939-0.374 0.7518-0.5443l0.60164 0.19789c0.39171 0.2626 0.78618 0.52936 1.1782 0.79156l0.577-0.5195-0.652-0.2721-0.301-0.5937-1.103-0.1236-0.02507-0.12368 0.4763 0.098946 0.27576-0.2721 0.60164-0.12368c0.14238-0.068326 0.28243-0.11754 0.42616-0.17315l-0.37603 0.34631 1.3537 0.91524v0.5442l-0.52644 0.51946 0.70192 1.3852 0.4763-0.2721 0.60164-0.91524c0.84587-0.25805 1.6082-0.55833 2.4066-0.91524l-0.05013 0.34631 0.4011 0.2721 0.70192-0.46999-0.35096-0.39578-0.4763 0.2721-0.15041-0.049469c0.03455-0.015578 0.06557-0.033636 0.10027-0.049468l0.702-1.7812-1.529-0.5936zm-6.8688 2.6715 0.57658 0.39578h0.4763v-0.46999l-0.5767-0.2474-0.4763 0.3216zm13.311-0.3216-1.027 0.2474l-0.65178 0.42052v0.37104l-1.0278 0.64314 0.20055 0.96472 0.60164-0.42052 0.37602 0.42052 0.42617 0.24736 0.27575-0.71735-0.15041-0.42052 0.15041-0.29684 0.60165-0.5442h0.27575l-0.27575 0.59367v0.5442c0.24798-0.066606 0.49828-0.092546 0.75206-0.12368l-0.70192 0.49473-0.05013 0.29683-0.80219 0.66788-0.82726-0.19789v-0.46999l-0.37603 0.24736 0.17548 0.42052h-0.60164l-0.32589 0.5442-0.4011 0.44525-0.72699 0.14842 0.42616 0.42052 0.10027 0.42052h-0.52644l-0.70192 0.37104v1.0884h0.32589l0.30082 0.32157 0.67685-0.32157 0.25069-0.66788 0.50137-0.29684 0.10028-0.24736 0.80219-0.19789 0.45124 0.49473 0.4763 0.24736-0.27576 0.5442 0.42617-0.12368 0.22562-0.5442-0.55151-0.61841h0.22562l0.55151 0.44526 0.10027 0.59367 0.4763 0.5442 0.12534-0.79156 0.25069-0.12368c0.26684 0.27334 0.47717 0.60762 0.70192 0.91524l0.82726 0.04948 0.4763 0.29684-0.22562 0.32157-0.4763 0.42052h-0.70192l-0.92753-0.29683-0.4763 0.04948-0.35096 0.39578-1.0027-0.98945-0.70192-0.19789-1.0278 0.12368-0.90247 0.24736c-0.51482 0.57591-1.0419 1.1582-1.5292 1.7563l-0.57658 1.3852 0.27575 0.29684-0.50137 0.71735 0.55151 1.2616c0.45891 0.51225 0.92052 1.021 1.3788 1.5336l0.67685-0.56893 0.27575 0.34631 0.72699-0.46999 0.25068 0.2721h0.72699l0.42616 0.46999-0.25069 0.84103 0.50137 0.56894-0.02507 0.98945 0.37603 0.71735-0.27575 0.61841c-0.02688 0.44353-0.05013 0.86742-0.05013 1.311 0.22118 0.60097 0.44293 1.2005 0.65178 1.8057l0.15041 0.96471v0.49473h0.40109l0.57658-0.37104h0.70192l1.0529-1.1626-0.12534-0.39578 0.70192-0.61841-0.52644-0.56894 0.62671-0.49472 0.60164-0.37105 0.27576-0.29683-0.17548-0.66788v-1.6821l0.4763-1.0389 0.60164-0.64314 0.65178-1.5831v-0.42052c-0.32435 0.04032-0.63524 0.07667-0.9526 0.09895l0.65178-0.64314 0.90247-0.59367 0.4763-0.5442v-0.59367c-0.10805-0.20102-0.21715-0.41737-0.32592-0.6184l-0.42616 0.49472-0.32589-0.37104-0.4763-0.37104v-0.76683l0.55151 0.61841 0.62671-0.07422c0.28273 0.25327 0.55421 0.47846 0.80219 0.76682l0.40111-0.44526c0-0.47935-0.54714-2.8458-1.7297-4.8483-1.183-2.0027-3.259-3.835-3.259-3.835l-0.15041 0.2721-0.55151 0.59367-0.70192-0.71735h0.70192l0.326-0.3463-1.304-0.2473-0.677-0.2474zm-15.066 0.3216-0.2507 0.6431s-0.43889 0.0715-0.55151 0.098945c-1.4382 1.3079-4.3385 4.1445-5.0137 9.4743 0.026734 0.12357 0.4763 0.84103 0.4763 0.84103l1.103 0.64314 1.103 0.29684 0.4763 0.56893 0.72699 0.5442 0.42616-0.0742 0.30082 0.14842v0.09894l-0.4011 1.1131-0.32589 0.46999 0.10027 0.22263-0.25068 0.89051 0.92753 1.6821 0.9526 0.8163 0.42616 0.59367-0.050141 1.2368 0.30082 0.69262-0.30082 1.3358s-0.040142-0.01098 0 0.12368c0.040499 0.13473 1.6758 1.0411 1.7799 0.96471 0.10376-0.07778 0.20055-0.14842 0.20055-0.14842l-0.10027-0.29684 0.42616-0.39578 0.15041-0.42052 0.67685-0.22263 0.52644-1.2863-0.15041-0.34631 0.35096-0.5442 0.80219-0.17315 0.4011-0.93998-0.10027-1.1626 0.62671-0.86577 0.10027-0.89051c-0.85988-0.42076-1.7035-0.85309-2.557-1.2863l-0.426-0.818-0.777-0.173-0.4262-1.113-1.0278 0.124-0.9025-0.643-0.9526 0.8163v0.12368c-0.2853-0.082-0.6233-0.094-0.8774-0.248l-0.20055-0.59367v-0.64314l-0.65178 0.07421c0.05245-0.40966 0.12266-0.82722 0.17548-1.2368h-0.37603l-0.37603 0.46999-0.35096 0.17315-0.52644-0.29683-0.050141-0.64314 0.10027-0.69262 0.77712-0.59367h0.62671l0.12534-0.34631 0.77712 0.17315 0.57658 0.71735 0.10027-1.1873 1.0027-0.8163 0.35096-0.86577 0.75206-0.29683 0.4011-0.59368 0.9526-0.17315 0.4763-0.69262h-1.4289l0.90247-0.42052h0.62671l0.802-0.2715 0.15 0.7668 0.351-0.5442-0.401-0.2721 0.1-0.3215-0.326-0.2969-0.351-0.0989 0.101-0.3711-0.276-0.5194-0.6268 0.2473 0.1003-0.47-0.727-0.4205-0.5765 0.9895 0.0501 0.3463-0.5766 0.2473-0.3509 0.7669-0.1755-0.7174-0.9777-0.3958-0.1755-0.5442 1.3287-0.742 0.5765-0.5442 0.0502-0.6432-0.3259-0.1731-0.4262-0.0495zm10.754 1.1873v0.39578l0.22562 0.24736v0.59367l-0.12534 0.79156 0.65178-0.12368 0.476-0.4701-0.426-0.3958c-0.138-0.3631-0.278-0.6906-0.451-1.0389h-0.35096zm-0.55151 0.79156-0.4011 0.12368 0.10028 0.71735 0.52644-0.2721-0.22562-0.56893zm7.3451 6.5056 0.60164 0.69262 0.72699 1.5336 0.45123 0.49472-0.22562 0.51947 0.4011 0.46999c-0.18406 0.01203-0.36232 0.02474-0.55151 0.02474-0.342-0.713-0.614-1.432-0.875-2.177l-0.45123-0.49473-0.25068-0.89051 0.17548-0.17315z"/>
  <path id="path10380-0-8" d="m4.5558 4.5684s0.16489 2.0101 1.5725 2.8481c1.5624-0.44791 3.414 0.010499 3.414 0.010499s1.2366-1.6643 3.967-1.6775c-1.9728 1.2456-2.0027 2.9122-2.0027 2.9122 0.55694 1.1239 0.83654 1.3355 2.9786 1.3006 1.1041-0.018005 1.1779 0.036383 0.88004 1.1083-0.22225 0.79979-2.0837 1.0796-2.8207 2.1601 0.29538 1.1597 0.23762 2.129 0.23762 2.129-3.3833-1.6519-3.8783 2.8388-0.05145 2.8388 1.638 0 4.3244-2.3293 6.2486-0.01939 0.70284 0.84376-0.83548 0.6524-1.2975 0.88215-1.4183 0.70527-1.7617 2.7057-5.6337 2.4481 13.842 5.5637 18.679-13.539 9.0749-19.097 6.8629 2.7384 9.3277 8.7179 9.4 13.487 0 9.0254-7.2905 14.651-14.498 14.651-7.2078 0-14.498-5.6254-14.498-14.577 0-3.5762 1.3848-6.1525 1.3848-6.1525-0.16007-4.4474 1.6447-5.2529 1.6447-5.2529z" stroke="url(#linearGradient4539)" stroke-width="1.3803" fill="url(#radialGradient4537)"/>
  <path id="path8655" opacity=".5" stroke-linejoin="round" style="color:#000000" d="m7.1625 6.3875c2.3896-2.3813 5.1322-3.516 8.7787-3.516 7.2922 0 13.205 5.8913 13.205 13.159 0 7.268-5.9124 13.16-13.205 13.16-7.2929 0-13.205-5.892-13.205-13.16" stroke="url(#linearGradient4533)" stroke-linecap="round" stroke-width="1.3803" fill="none"/>
  <path id="path9948" opacity=".5" d="m4.25 6.5625c-0.2595 0.6572-0.4964 1.5833-0.4375 3.2187 0.0112 0.1609-0.0216 0.3248-0.0937 0.4688 0 0-1.2812 2.375-1.2812 5.7188 0 8.4595 6.8591 13.688 13.594 13.688 6.7356 0 13.594-5.213 13.594-13.75-0.04461-2.9434-1.1836-6.3168-3.7188-9.0625 1.4828 3.0554 1.4519 6.5463 0.34375 9.5938-0.93363 2.5676-2.6926 4.8164-5.1875 6.0312s-5.6998 1.3397-9.3438-0.125c-0.40482-0.15472-0.65754-0.6299-0.55954-1.052 0.098-0.42215 0.53421-0.73739 0.96579-0.69795 1.7799 0.1184 2.5262-0.24265 3.125-0.6875 0.59884-0.44485 1.0432-1.1649 2.0312-1.6562 0.06735-0.03349 0.09737-0.0093 0.15625-0.03125-0.06254-0.01956-0.12272-0.1122-0.1875-0.125-0.35629-0.07038-0.79579-0.03171-1.2812 0.09375-0.97092 0.25092-2.0048 0.90625-3.25 0.90625-2.266 0-3.6808-1.4863-3.5625-3 0.059136-0.75684 0.53821-1.5013 1.3125-1.8125 0.38714-0.15559 0.82507-0.2052 1.2812-0.15625-0.03214-0.29578-0.000025-0.31952-0.09375-0.6875-0.05993-0.24299-0.01345-0.51026 0.125-0.71875 0.55095-0.8078 1.345-1.1952 1.9375-1.5 1.5258-0.50401-0.87239-0.05747-1.6875-0.65625-0.67143-0.31243-1.047-0.90125-1.3438-1.5-0.0621-0.12573-0.09448-0.26602-0.09375-0.40625 0 0-0.02438-0.45544 0.25-1.125-0.433 0.1771-0.595 0.4362-0.595 0.4362-0.209 0.2835-0.5944 0.4246-0.9375 0.3437 0 0-1.7214-0.37988-2.9375-0.03125-0.2388 0.0691-0.5057 0.0343-0.7188-0.0937-0.7207-0.4291-1.1105-1.0361-1.4062-1.625z" stroke="url(#radialGradient4535)" stroke-width=".82818" fill="none"/>
 </g>
</svg>
