<?xml version="1.0" encoding="UTF-8" standalone="no"?>
<svg
    xmlns:dc="http://purl.org/dc/elements/1.1/"
    xmlns:cc="http://creativecommons.org/ns#"
    xmlns:rdf="http://www.w3.org/1999/02/22-rdf-syntax-ns#"
    xmlns:svg="http://www.w3.org/2000/svg"
    xmlns="http://www.w3.org/2000/svg"
    xmlns:sodipodi="http://sodipodi.sourceforge.net/DTD/sodipodi-0.dtd"
    xmlns:inkscape="http://www.inkscape.org/namespaces/inkscape"
    viewBox="0 0 48 48"
    id="svg2"
    version="1.1"
    inkscape:version="0.92.0 r"
    sodipodi:docname="48_backup_backup.svg">
    <metadata id="metadata59">
        <rdf:RDF>
            <cc:Work rdf:about="">
                <dc:format>image/svg+xml</dc:format>
                <dc:type rdf:resource="http://purl.org/dc/dcmitype/StillImage"/>
            </cc:Work>
        </rdf:RDF>
    </metadata>
    <sodipodi:namedview
        pagecolor="#ffffff"
        bordercolor="#666666"
        borderopacity="1"
        objecttolerance="10"
        gridtolerance="10"
        guidetolerance="10"
        inkscape:pageopacity="0"
        inkscape:pageshadow="2"
        inkscape:window-width="1260"
        inkscape:window-height="962"
        id="namedview57"
        showgrid="true"
        inkscape:zoom="9.8333333"
        inkscape:cx="27.178876"
        inkscape:cy="17.032687"
        inkscape:window-x="10"
        inkscape:window-y="52"
        inkscape:window-maximized="0"
        inkscape:current-layer="svg2">
        <inkscape:grid type="xygrid" id="grid3389"/>
    </sodipodi:namedview>
    <defs id="defs4">
        <linearGradient id="linearGradient3764" x1="1" x2="47" gradientUnits="userSpaceOnUse" gradientTransform="matrix(0,-1,1,0,-1.5e-6,47.999998)">
            <stop style="stop-color:#344e8e;stop-opacity:1" id="stop7"/>
            <stop offset="1" style="stop-color:#3a569c;stop-opacity:1" id="stop9"/>
        </linearGradient>
        <clipPath id="clipPath-642319694">
            <g transform="translate(0,-1004.3622)" id="g12">
                <path d="m -24 13 c 0 1.105 -0.672 2 -1.5 2 -0.828 0 -1.5 -0.895 -1.5 -2 0 -1.105 0.672 -2 1.5 -2 0.828 0 1.5 0.895 1.5 2 z" transform="matrix(15.333333,0,0,11.5,414.99999,878.8622)" style="fill:#1890d0" id="path14"/>
            </g>
        </clipPath>
        <clipPath id="clipPath-656603142">
            <g transform="translate(0,-1004.3622)" id="g17">
                <path d="m -24 13 c 0 1.105 -0.672 2 -1.5 2 -0.828 0 -1.5 -0.895 -1.5 -2 0 -1.105 0.672 -2 1.5 -2 0.828 0 1.5 0.895 1.5 2 z" transform="matrix(15.333333,0,0,11.5,414.99999,878.8622)" style="fill:#1890d0" id="path19"/>
            </g>
        </clipPath>
    </defs>
    <g id="g21">
        <path
            d="m 36.31 5 c 5.859 4.062 9.688 10.831 9.688 18.5 c 0 12.426 -10.07 22.5 -22.5 22.5 c -7.669 0 -14.438 -3.828 -18.5 -9.688 c 1.037 1.822 2.306 3.499 3.781 4.969 c 4.085 3.712 9.514 5.969 15.469 5.969 c 12.703 0 23 -10.298 23 -23 c 0 -5.954 -2.256 -11.384 -5.969 -15.469 c -1.469 -1.475 -3.147 -2.744 -4.969 -3.781 z m 4.969 3.781 c 3.854 4.113 6.219 9.637 6.219 15.719 c 0 12.703 -10.297 23 -23 23 c -6.081 0 -11.606 -2.364 -15.719 -6.219 c 4.16 4.144 9.883 6.719 16.219 6.719 c 12.703 0 23 -10.298 23 -23 c 0 -6.335 -2.575 -12.06 -6.719 -16.219 z"
            style="opacity:0.05"
            id="path23"/>
        <path
            d="m 41.28 8.781 c 3.712 4.085 5.969 9.514 5.969 15.469 c 0 12.703 -10.297 23 -23 23 c -5.954 0 -11.384 -2.256 -15.469 -5.969 c 4.113 3.854 9.637 6.219 15.719 6.219 c 12.703 0 23 -10.298 23 -23 c 0 -6.081 -2.364 -11.606 -6.219 -15.719 z"
            style="opacity:0.1"
            id="path25"/>
        <path d="m 31.25 2.375 c 8.615 3.154 14.75 11.417 14.75 21.13 c 0 12.426 -10.07 22.5 -22.5 22.5 c -9.708 0 -17.971 -6.135 -21.12 -14.75 a 23 23 0 0 0 44.875 -7 a 23 23 0 0 0 -16 -21.875 z" style="opacity:0.2" id="path27"/>
    </g>
    <g id="g29" style="fill:#501616;fill-opacity:1" transform="matrix(0,-1,1,0,0,48)">
        <path d="M 24,1 C 36.703,1 47,11.297 47,24 47,36.703 36.703,47 24,47 11.297,47 1,36.703 1,24 1,11.297 11.297,1 24,1 Z" style="fill:#16181b;fill-opacity:1" id="path31" inkscape:connector-curvature="0"/>
    </g>
    <g id="g53">
        <path
            d="m 40.03 7.531 c 3.712 4.084 5.969 9.514 5.969 15.469 0 12.703 -10.297 23 -23 23 c -5.954 0 -11.384 -2.256 -15.469 -5.969 4.178 4.291 10.01 6.969 16.469 6.969 c 12.703 0 23 -10.298 23 -23 0 -6.462 -2.677 -12.291 -6.969 -16.469 z"
            style="opacity:0.1"
            id="path55"/>
    </g>
    <circle style="opacity:0.9;fill:#16181b;fill-opacity:1;fill-rule:nonzero;stroke:none;stroke-width:1;stroke-linejoin:round;stroke-miterlimit:4;stroke-dasharray:none;stroke-opacity:1" id="path3391" cx="24" cy="24" r="15"/>
    <g id="Kraken_Full" transform="matrix(1.4405589,0,0,1.4405589,-2030.5606,-716.08284)">
        <path
            inkscape:connector-curvature="0"
            style="fill:#149287;stroke-width:0.01234673;image-rendering:auto"
            id="path2"
            d="m 1436.7562,509.24598 c -0.09,-0.24076 -0.363,-0.35806 -0.5988,-0.25804 -0.1704,0.0728 -0.2741,0.23952 -0.2741,0.41484 0,0.0519 0.01,0.10495 0.029,0.15804 0.4272,1.1359 0.6618,2.36564 0.6618,3.65093 0,5.26465 -3.9238,9.61193 -9.007,10.27742 v -4.84115 c 0.3087,-0.0605 0.605,-0.14076 0.9013,-0.24076 v 4.06701 c 4.1732,-1.0149 7.2723,-4.77695 7.2723,-9.26252 0,-3.5929 -1.9878,-6.72032 -4.9227,-8.34515 -0.2247,-0.12471 -0.5075,-0.0333 -0.621,0.19754 -0.031,0.0642 -0.045,0.13211 -0.045,0.19878 0,0.15804 0.084,0.31238 0.2308,0.39387 2.657,1.47049 4.4572,4.30283 4.4572,7.55619 0,3.65093 -2.2668,6.77219 -5.4696,8.03279 v -3.60771 c 0.5556,-0.17409 0.9729,-0.69389 0.9729,-1.30999 0,-0.51116 -0.2642,-0.95564 -0.6778,-1.1927 0.3235,-3.11138 1.7421,-2.29155 1.7421,-3.28053 v -0.58029 c 0,-1.48778 -3.4373,-6.3277 -5.0473,-6.44376 -0.049,-0.004 -0.099,-0.005 -0.1482,-0.005 -0.049,0 -0.1013,0.002 -0.1506,0.005 -1.6101,0.11606 -5.0498,4.95598 -5.0498,6.44376 v 0.58029 c 0,0.98898 1.4186,0.16915 1.7421,3.28053 -0.4136,0.23706 -0.6766,0.68154 -0.6766,1.1927 0,0.6161 0.4161,1.1359 0.9717,1.30999 v 3.60771 c -3.2028,-1.2606 -5.4696,-4.38309 -5.4696,-8.03279 0,-3.25213 1.7989,-6.08446 4.4571,-7.55619 0.2099,-0.11607 0.2902,-0.37658 0.1852,-0.59265 -0.078,-0.16051 -0.2395,-0.25311 -0.4049,-0.25311 -0.073,0 -0.147,0.0173 -0.2161,0.0556 -2.936,1.62483 -4.9239,4.75225 -4.9239,8.34515 0,4.48557 3.0991,8.24762 7.2722,9.26252 v -4.06701 c 0.2964,0.1 0.5927,0.18026 0.9013,0.24076 v 4.84115 c -5.0831,-0.66549 -9.0069,-5.01277 -9.0069,-10.27742 0,-1.28529 0.2334,-2.51503 0.6618,-3.65093 0.085,-0.22595 -0.025,-0.47781 -0.2457,-0.57165 -0.058,-0.0247 -0.1173,-0.0358 -0.1766,-0.0358 -0.1827,0 -0.3543,0.11112 -0.4222,0.29385 -0.4643,1.23221 -0.7186,2.56813 -0.7186,3.96454 0,6.06966 4.7967,11.01823 10.8095,11.25775 v -5.70419 c 0.1606,0.01 0.4569,0.0148 0.4569,0.0148 0,0 0.2963,-0.005 0.4568,-0.0148 v 5.70419 c 6.0129,-0.23952 10.8096,-5.18809 10.8096,-11.25775 0,-1.39641 -0.2531,-2.73233 -0.7174,-3.96577 z m -8.4699,6.42648 c 0.1679,-0.16792 0.3988,-0.27163 0.6544,-0.27163 0.2568,0 0.4864,0.10371 0.6544,0.27163 0.1679,0.16791 0.2704,0.39879 0.2716,0.65437 0,0.25681 -0.1037,0.48646 -0.2716,0.65438 -0.168,0.16791 -0.3988,0.27162 -0.6544,0.27162 -0.2568,0 -0.4865,-0.10371 -0.6544,-0.27162 -0.1679,-0.16792 -0.2716,-0.3988 -0.2716,-0.65438 0,-0.25558 0.1037,-0.48646 0.2716,-0.65437 z m -4.1571,1.30998 c -0.1679,0.16792 -0.3989,0.27163 -0.6544,0.27163 -0.2568,0 -0.4865,-0.10371 -0.6544,-0.27163 -0.1679,-0.16791 -0.2716,-0.3988 -0.2716,-0.65437 0,-0.25682 0.1037,-0.48646 0.2716,-0.65438 0.1679,-0.16792 0.3988,-0.27163 0.6544,-0.27163 0.2568,0 0.4865,0.10371 0.6544,0.27163 0.1679,0.16792 0.2716,0.3988 0.2716,0.65438 0,0.25557 -0.1037,0.48522 -0.2716,0.65437 z"/>
    </g>
</svg>