<?xml version="1.0" encoding="UTF-8" standalone="no"?>
<!-- Created with Inkscape (http://www.inkscape.org/) -->
<svg id="svg3933" xmlns:rdf="http://www.w3.org/1999/02/22-rdf-syntax-ns#" xmlns="http://www.w3.org/2000/svg" height="128" width="128" version="1.1" xmlns:cc="http://creativecommons.org/ns#" xmlns:xlink="http://www.w3.org/1999/xlink" xmlns:dc="http://purl.org/dc/elements/1.1/">
 <defs id="defs3935">
  <linearGradient id="linearGradient3906-0-5" y2="44.341" gradientUnits="userSpaceOnUse" x2="71.204" gradientTransform="matrix(2.7517 0 0 2.7517 -132.85 -3.3803)" y1="6.2376" x1="71.204">
   <stop id="stop4013-1-6" stop-color="#fff" offset="0"/>
   <stop id="stop4015-5-3" stop-color="#fff" stop-opacity=".23529" offset=".50776"/>
   <stop id="stop4017-2-2" stop-color="#fff" stop-opacity=".15686" offset=".83457"/>
   <stop id="stop4019-5-4" stop-color="#fff" stop-opacity=".39216" offset="1"/>
  </linearGradient>
  <radialGradient id="radialGradient6309" gradientUnits="userSpaceOnUse" cy="8.4498" cx="6.2973" gradientTransform="matrix(0 3.5734 -3.7808 -9.7262e-8 96.444 -7.8504)" r="20">
   <stop id="stop3750-8-9-7-2" stop-color="#90dbec" offset="0"/>
   <stop id="stop3752-3-2-4-1" stop-color="#42baea" offset=".26238"/>
   <stop id="stop3754-7-2-4-7" stop-color="#3689e6" offset=".70495"/>
   <stop id="stop3756-9-3-3-8" stop-color="#2b63a0" offset="1"/>
  </radialGradient>
  <linearGradient id="linearGradient6311" y2="3.899" gradientUnits="userSpaceOnUse" x2="24" gradientTransform="matrix(2.6667 0 0 2.6663 .49483 2.5084)" y1="44" x1="24">
   <stop id="stop3760-7-3-7-4" stop-color="#082136" offset="0"/>
   <stop id="stop3762-8-4-8-1" stop-color="#599ec9" offset="1"/>
  </linearGradient>
  <radialGradient id="radialGradient6314" gradientUnits="userSpaceOnUse" cy="4.625" cx="62.625" gradientTransform="matrix(5.1415 0 0 1.7882 -257.99 97.583)" r="10.625">
   <stop id="stop8840" offset="0"/>
   <stop id="stop8842" stop-opacity="0" offset="1"/>
  </radialGradient>
  <radialGradient id="radialGradient6320" fy="22.504" gradientUnits="userSpaceOnUse" cy="26.141" cx="21.12" gradientTransform="matrix(0 1.0014 -1.0999 0 -6.531 65.08)" r="20.002">
   <stop id="stop9910-4" stop-color="#ffca51" offset="0"/>
   <stop id="stop9926-0" stop-color="#ffbb39" offset=".39939"/>
   <stop id="stop9928-7" stop-color="#ff780b" offset=".77552"/>
   <stop id="stop9912-5" stop-color="#ff6201" offset="1"/>
  </radialGradient>
  <linearGradient id="linearGradient6322" y2="44.332" gradientUnits="userSpaceOnUse" x2="32.438" gradientTransform="matrix(.97581 0 0 .97579 -58.703 61.851)" y1="8.5399" x1="21.375">
   <stop id="stop9946-9" stop-color="#de6300" offset="0"/>
   <stop id="stop9944-7" stop-color="#d04e00" offset="1"/>
  </linearGradient>
  <radialGradient id="radialGradient6324" gradientUnits="userSpaceOnUse" cy="78.727" cx="-28.054" gradientTransform="matrix(1.1428 0 0 1.1302 -3.4233 -2.9275)" r="19.594">
   <stop id="stop9952-3" stop-color="#fff" stop-opacity=".15686" offset="0"/>
   <stop id="stop9960-9" stop-color="#fff" stop-opacity=".23529" offset=".43016"/>
   <stop id="stop9958-1" stop-color="#fff" stop-opacity=".39216" offset=".94998"/>
   <stop id="stop9954-3" stop-color="#fff" offset="1"/>
  </radialGradient>
 </defs>
 <metadata id="metadata3938">
  <rdf:RDF>
   <cc:Work rdf:about="">
    <dc:format>image/svg+xml</dc:format>
    <dc:type rdf:resource="http://purl.org/dc/dcmitype/StillImage"/>
    <dc:title/>
   </cc:Work>
  </rdf:RDF>
 </metadata>
 <path id="path8836" opacity=".3" d="m118.63 105.85c0 10.493-24.458 19-54.629 19s-54.629-8.5066-54.629-19 24.458-19 54.629-19 54.629 8.5066 54.629 19z" fill-rule="evenodd" fill="url(#radialGradient6314)"/>
 <path id="path2555-7" stroke-linejoin="round" style="color:#000000" d="m64.5 14.5c-28.692 0-52 23.308-52 52s23.308 52 52 52 52-23.308 52-52-23.308-52-52-52z" stroke="url(#linearGradient6311)" stroke-linecap="round" fill="url(#radialGradient6309)"/>
 <path id="path6534" opacity=".4" d="m64.5 15.03c-0.32327 0-0.64688 0.02536-0.96875 0.03125l-4.5 0.5-6.9688 1.9375c0.59428-0.21225 1.1967-0.4218 1.8125-0.625l-0.374-0.655c-3.9567 0.85449-7.7458 2.1437-11.312 3.8438l-0.53125 1.1562-0.34375-0.71875c-0.34469 0.17233-0.69096 0.35153-1.0312 0.53125l0.09375 1.375-1.7188 1.4688-1 2.6875h2.0938l0.8125-1.75 0.28125-0.65625c0.91627-0.66113 1.7855-1.3949 2.7188-2.0312l2.1562 0.75c1.4158 0.98141 2.8331 1.9888 4.25 2.9688l2.0938-1.9688-2.3438-1-1.0938-2.2188-4-0.46875-0.09375-0.46875 1.75 0.375 0.96875-1 2.1875-0.46875c0.51459-0.25535 1.0118-0.44841 1.5312-0.65625l-1.3438 1.3125 4.875 3.4062v2.0312l-1.9062 1.9375 2.5625 5.1875 1.7188-1.0312 2.1562-3.4062c3.0572-0.9644 5.8333-2.1036 8.7188-3.4375l-0.1875 1.3125 1.4375 1 2.5312-1.75-1.25-1.4688-1.7188 1-0.563-0.188c0.12487-0.05821 0.2496-0.09708 0.375-0.15625l2.5312-6.6562-4.9688-2c-0.47648-0.01294-0.95793-0.03125-1.4375-0.03125zm-23.938 9.7812 2.0938 1.4688h1.7188v-1.75l-2.0938-0.90625-1.7188 1.1875zm48.094-1.1875-3.6875 0.90625-2.375 1.5625v1.4062l-3.7188 2.4062 0.71875 3.5938 2.1875-1.5625 1.375 1.5625 1.5312 0.9375 1-2.6875-0.5625-1.5625 0.5625-1.125 2.1562-2.0312h1l-1 2.2188v2.0312c0.89627-0.24892 1.8016-0.35239 2.7188-0.46875l-2.5312 1.8438-0.1875 1.125-2.875 2.5-3-0.75v-1.75l-1.375 0.9375 0.65625 1.5625h-2.1875l-1.1875 2.0312-1.4375 1.6562-2.625 0.5625 1.5312 1.5625 0.375 1.5625h-1.9062l-2.5312 1.4062v4.0625h1.1562l1.0938 1.1875 2.4375-1.1875 0.90625-2.5 1.8125-1.0938 0.375-0.9375 2.9062-0.75 1.625 1.875 1.7188 0.90625-1 2.0312 1.5625-0.46875 0.8125-2.0312-2-2.3125h0.8125l2 1.6875 0.34375 2.2188 1.7188 2.0312 0.46875-2.9688 0.90625-0.46875c0.96443 1.0215 1.719 2.2878 2.5312 3.4375l3 0.1875 1.7188 1.0938-0.8125 1.2188-1.7188 1.5625h-2.5625l-3.3438-1.125-1.7188 0.1875-1.25 1.5-3.625-3.7188-2.5625-0.71875-3.7188 0.4375-3.25 0.9375c-1.8607 2.1523-3.7701 4.3272-5.5312 6.5625l-2.0625 5.1875 0.96875 1.0938-1.8125 2.6875 2 4.7188c1.6586 1.9144 3.3438 3.803 5 5.7188l2.4375-2.125 1 1.3125 2.625-1.7812 0.90625 1.0312h2.625l1.5312 1.75-0.90625 3.1562 1.8125 2.125-0.09375 3.6875 1.375 2.6875-1 2.3125c-0.09716 1.6576-0.1875 3.2484-0.1875 4.9062 0.7994 2.246 1.6202 4.4878 2.375 6.75l0.53125 3.5938v1.8438h1.4375l2.0938-1.375h2.5312l3.8125-4.3438-0.4375-1.5 2.5312-2.3125-1.9062-2.125 2.25-1.8438 2.1875-1.375 1-1.125-0.625-2.4688v-6.3125l1.7188-3.875 2.1562-2.4062 2.375-5.9062v-1.5625c-1.1723 0.15067-2.3217 0.26048-3.4688 0.34375l2.375-2.375 3.25-2.2188 1.7188-2.0625v-2.2188c-0.39045-0.75129-0.76313-1.5612-1.1562-2.3125l-1.5625 1.875-1.1562-1.4062-1.75-1.375v-2.875l2 2.3125 2.2812-0.28125c1.0218 0.94651 2.01 1.7973 2.9062 2.875l1.4375-1.6562c0-1.7915-1.9758-10.641-6.25-18.125-2.3231-4.0663-5.5858-7.8996-8.0938-10.594-1.2264-1.2028-2.5037-2.3599-3.8438-3.4375l-0.375 0.71875-2 2.2188-2.5312-2.6875h2.5312l1.125-1.25c-0.02997-0.02263-0.06373-0.03994-0.09375-0.0625l-4.5625-0.90625-2.4688-0.90625zm-54.438 1.1875-0.90625 2.4062s-1.593 0.27243-2 0.375c-5.1982 4.8875-15.685 15.488-18.125 35.406 0.09664 0.4618 1.7188 3.125 1.7188 3.125l4 2.4062 3.9688 1.125 1.75 2.125 2.625 2.0312 1.5312-0.28125 1.0938 0.5625v0.375l-1.4688 4.1562-1.1562 1.75 0.34375 0.84375-0.90625 3.3125 3.375 6.2812 3.4375 3.0625 1.5312 2.2188-0.1875 4.625 1.0938 2.5938-1.0938 4.9688s-0.14508-0.0345 0 0.46875c0.14637 0.50351 6.0612 3.8791 6.4375 3.5938 0.374-0.29 0.718-0.53 0.718-0.53l-0.34375-1.125 1.5312-1.4688 0.53125-1.5625 2.4688-0.84375 1.9062-4.8125-0.5625-1.2812 1.2812-2.0312 2.875-0.65625 1.4688-3.5-0.375-4.375 2.2812-3.2188 0.34375-3.3438c-3.1078-1.5725-6.1341-3.1623-9.2188-4.7812l-1.5625-3.0625-2.8125-0.65625-1.5312-4.1562-3.7188 0.46875-3.25-2.4062-3.4375 3.0625v0.4375c-1.0312-0.30371-2.2693-0.33019-3.1875-0.90625l-0.71875-2.2188v-2.4062l-2.3438 0.28125c0.18957-1.531 0.43412-3.0942 0.625-4.625h-1.375l-1.3438 1.75-1.2812 0.65625-1.875-1.125-0.1875-2.4062 0.34375-2.5625 2.8125-2.2188h2.2812l0.4375-1.3125 2.8125 0.65625 2.0938 2.6875 0.34375-4.4375 3.625-3.0625 1.2812-3.2188 2.7188-1.125 1.4375-2.2188 3.4375-0.65625 1.75-2.5938h-5.1875l3.2812-1.5625h2.25l2.9062-1 0.53125 2.8438 1.2812-2.0312-1.4375-1 0.34375-1.2188-1.1875-1.0938-1.25-0.375 0.34375-1.375-0.96875-1.9688-2.2812 0.9375 0.375-1.75-2.625-1.5625-2.0938 3.6875 0.1875 1.2812-2.0938 0.9375-1.2812 2.875-0.625-2.6875-3.5312-1.5-0.625-2.0312 4.7812-2.75 2.0938-2.0312 0.1875-2.4062-1.1875-0.65625-1.5312-0.1875zm38.875 4.4375v1.4688l0.8125 0.9375v2.2188l-0.46875 2.9688 2.375-0.46875 1.7188-1.75-1.5625-1.5c-0.49949-1.3572-0.99983-2.5733-1.625-3.875h-1.25zm-2 2.9688-1.4375 0.4375 0.34375 2.6875 1.9062-1-0.8125-2.125zm26.531 24.312 2.1875 2.5938 2.625 5.7188 1.625 1.8438-0.8125 1.9375 1.4688 1.75c-0.66527 0.04492-1.3162 0.09375-2 0.09375-1.2422-2.6632-2.2416-5.3388-3.1875-8.125l-1.625-1.8438-0.907-3.346 0.625-0.625z"/>
 <g id="g6316" transform="matrix(2.6659 0 0 2.6659 158.59 -163.41)">
  <path id="path10380-0-8-9" d="m-50.725 70.866s0.22198 2.6995 2.1169 3.825c2.1034-0.60153 4.596 0.0141 4.596 0.0141s1.6648-2.2351 5.3404-2.2529c-2.6559 1.6728-2.696 3.9111-2.696 3.9111 0.74977 1.5094 1.1262 1.7936 4.0099 1.7467 1.4863-0.0242 1.5858 0.0488 1.1847 1.4885-0.2992 1.0741-2.8051 1.4499-3.7972 2.901 0.39765 1.5575 0.31989 2.8591 0.31989 2.8591-4.5546-2.2184-5.221 3.8125-0.0693 3.8125 2.2051 0 5.8216-3.1282 8.412-0.026 0.94617 1.1332-1.1247 0.87617-1.7467 1.1847-1.9093 0.94716-2.3717 3.6337-7.5842 3.2878 18.634 7.472 25.146-18.182 12.217-25.647 9.239 3.6776 12.557 11.708 12.654 18.113 0 12.121-9.8147 19.676-19.518 19.676s-19.518-7.5548-19.518-19.577c0-4.8027 1.8642-8.2627 1.8642-8.2627-0.21549-5.9727 2.2142-7.0545 2.2142-7.0545z" stroke="url(#linearGradient6322)" stroke-width=".37510" fill="url(#radialGradient6320)"/>
  <path id="path9948-7" opacity=".5" d="m-25.406 69.875c4.2363 4.3383 5.1035 11.151 3.0938 16.656-1.1994 3.2858-3.4269 6.1014-6.5625 7.625s-7.1683 1.7436-11.906-0.15625a0.40172 0.40172 0 0 1 0.1875 -0.78125c2.5386 0.16846 3.813-0.36454 4.75-1.0625 0.93704-0.69796 1.5177-1.6225 2.5938-2.1562 0.25261-0.12531 0.53811-0.14922 0.8125-0.1875s0.5489-0.07592 0.75-0.125c0.1708-0.04168 0.21679-0.07681 0.21875-0.0625-0.0094-0.02949-0.05829-0.10144-0.15625-0.21875-0.59816-0.71636-1.2208-1.0585-1.875-1.1875-0.65421-0.12904-1.3431-0.02946-2.0625 0.15625-1.4388 0.37142-2.8695 1.1875-4.1562 1.1875-2.7292 0-4.1094-1.6966-4-3.1875 0.05469-0.74546 0.49308-1.4415 1.25-1.75 0.62144-0.25328 1.4748-0.14666 2.4062 0.1875-0.0028-0.46698-0.02183-1.2027-0.28125-2.2188a0.39291 0.39291 0 0 1 0.0625 -0.3125c0.57345-0.83876 1.497-1.3076 2.2812-1.7188 0.39215-0.20556 0.74404-0.40954 1-0.59375s0.39889-0.33013 0.4375-0.46875c0.09928-0.35643 0.16664-0.61832 0.1875-0.78125 0.02087-0.16293-0.0237-0.18564 0-0.15625s0.01173-0.01193-0.15625-0.03125-0.44332-0.006-0.8125 0c-1.4552 0.02367-2.3026-0.03729-2.9688-0.34375-0.66616-0.30646-1.0235-0.85442-1.4062-1.625a0.39291 0.39291 0 0 1 -0.0625 -0.1875s0.03113-0.66359 0.40625-1.5c0.25145-0.56067 0.77243-1.2063 1.4375-1.8438-2.5456 0.44786-3.75 1.9062-3.75 1.9062a0.39291 0.39291 0 0 1 -0.40625 0.15625s-2.4517-0.59021-4.4062-0.03125a0.39291 0.39291 0 0 1 -0.28125 -0.03125c-1.6627-0.98757-2.0582-2.6339-2.1875-3.4375-0.17859 0.17158-0.37156 0.36369-0.59375 0.75-0.53734 0.93423-1.0745 2.6302-0.96875 5.5625a0.39291 0.39291 0 0 1 -0.0625 0.1875s-1.8125 3.3933-1.8125 8.0938c0 11.808 9.6252 19.156 19.125 19.156 9.4999 0 19.094-7.3408 19.094-19.25-0.08343-5.4915-2.5188-12.203-9.2188-16.219z" xlink:href="#path10380-0-8-9" transform="translate(.0000031422 -.0000019618)" stroke="url(#radialGradient6324)" stroke-width=".37510" fill="none"/>
 </g>
 <path id="path8655-5" opacity=".5" stroke-linejoin="round" style="color:#000000" d="m26.802 32.238c0.28095-0.29466 1.4553-1.5521 1.7431-1.8399 9.2125-9.212 21.939-14.91 35.997-14.91 28.113 0 50.906 22.79 50.906 50.905 0 28.116-22.794 50.909-50.906 50.909-28.115 0-50.908-22.793-50.908-50.909" stroke="url(#linearGradient3906-0-5)" stroke-linecap="round" fill="none"/>
</svg>
