<?xml version="1.0" encoding="UTF-8" standalone="no"?>
<!-- Created with Inkscape (http://www.inkscape.org/) -->
<svg id="svg3946" xmlns:rdf="http://www.w3.org/1999/02/22-rdf-syntax-ns#" xmlns="http://www.w3.org/2000/svg" height="22" width="22" version="1.1" xmlns:cc="http://creativecommons.org/ns#" xmlns:xlink="http://www.w3.org/1999/xlink" xmlns:dc="http://purl.org/dc/elements/1.1/">
 <defs id="defs3948">
  <radialGradient id="radialGradient4535" gradientUnits="userSpaceOnUse" cy="16.569" cx="16.768" gradientTransform="matrix(.63297 0 0 .62604 .17907 .49193)" r="19.594">
   <stop id="stop9952" stop-color="#fff" stop-opacity=".15686" offset="0"/>
   <stop id="stop9960" stop-color="#fff" stop-opacity=".23529" offset=".43016"/>
   <stop id="stop9958" stop-color="#fff" stop-opacity=".39216" offset=".94998"/>
   <stop id="stop9954" stop-color="#fff" offset="1"/>
  </radialGradient>
  <linearGradient id="linearGradient4533" y2="44.341" gradientUnits="userSpaceOnUse" x2="71.204" gradientTransform="matrix(.51712 0 0 .51534 -26.155 -2.0351)" y1="6.2376" x1="71.204">
   <stop id="stop4013-5" stop-color="#fff" offset="0"/>
   <stop id="stop4015-0" stop-color="#fff" stop-opacity=".23529" offset=".50776"/>
   <stop id="stop4017-5" stop-color="#fff" stop-opacity=".15686" offset=".83457"/>
   <stop id="stop4019-6" stop-color="#fff" stop-opacity=".39216" offset="1"/>
  </linearGradient>
  <radialGradient id="radialGradient4537" fy="22.504" gradientUnits="userSpaceOnUse" cy="26.141" cx="21.12" gradientTransform="matrix(0 .54024 -.59192 0 26.474 -.39357)" r="20.002">
   <stop id="stop9910" stop-color="#ffca51" offset="0"/>
   <stop id="stop9926" stop-color="#ffbb39" offset=".39939"/>
   <stop id="stop9928" stop-color="#ff780b" offset=".77552"/>
   <stop id="stop9912" stop-color="#ff6201" offset="1"/>
  </radialGradient>
  <linearGradient id="linearGradient4539" y2="44.332" gradientUnits="userSpaceOnUse" x2="32.438" gradientTransform="matrix(.52514 0 0 .52640 -1.6025 -2.1356)" y1="8.5399" x1="21.375">
   <stop id="stop9946" stop-color="#de6300" offset="0"/>
   <stop id="stop9944" stop-color="#d04e00" offset="1"/>
  </linearGradient>
  <radialGradient id="radialGradient3669" gradientUnits="userSpaceOnUse" cx="6.2973" cy="8.4498" r="20" gradientTransform="matrix(0 .72124 -.76299 -1.9631e-8 17.448 -4.0143)">
   <stop id="stop3750-8-9-5" stop-color="#90dbec" offset="0"/>
   <stop id="stop3752-3-2-4" stop-color="#42baea" offset=".26238"/>
   <stop id="stop3754-7-2-9" stop-color="#3689e6" offset=".70495"/>
   <stop id="stop3756-9-3-3" stop-color="#2b63a0" offset="1"/>
  </radialGradient>
  <linearGradient id="linearGradient3671" y2="3.899" gradientUnits="userSpaceOnUse" y1="44" gradientTransform="matrix(.53816 0 0 .53816 -1.9149 -1.9235)" x2="24" x1="24">
   <stop id="stop3760-7-3-3" stop-color="#185f9a" offset="0"/>
   <stop id="stop3762-8-4-3" stop-color="#599ec9" offset="1"/>
  </linearGradient>
 </defs>
 <metadata id="metadata3951">
  <rdf:RDF>
   <cc:Work rdf:about="">
    <dc:format>image/svg+xml</dc:format>
    <dc:type rdf:resource="http://purl.org/dc/dcmitype/StillImage"/>
    <dc:title/>
   </cc:Work>
  </rdf:RDF>
 </metadata>
 <g id="g8695">
  <path id="path2555" stroke-linejoin="round" style="color:#000000" d="m11.001 0.49922c-5.7898 0-10.493 4.7034-10.493 10.493 0 5.7898 4.7034 10.493 10.493 10.493 5.7898 0 10.493-4.7034 10.493-10.493 0-5.7898-4.7034-10.493-10.493-10.493z" stroke="url(#linearGradient3671)" stroke-linecap="round" fill="url(#radialGradient3669)"/>
  <path id="path6534-3" opacity=".4" d="m11.178 1.1724-1.271 0.1434-1.3984 0.3763c0.1191-0.0411 0.2398-0.086 0.3632-0.1254l-0.1634-0.2867-0.5449 0.0896-0.2724 0.2509-0.4177 0.0537-0.3814 0.1792-0.18162 0.089605-0.054489 0.071685-0.27242 0.053763-0.16345 0.3405-0.21794-0.43011-0.072646 0.17921 0.036326 0.48387-0.34507 0.28674-0.19978 0.51971h0.41772l0.16346-0.3405 0.054486-0.12545c0.1836-0.1281 0.3577-0.2708 0.5448-0.3942l0.4359 0.1434c0.2837 0.1902 0.5695 0.3835 0.8536 0.5734l0.4177-0.3763-0.4722-0.1971-0.218-0.4301-0.7991-0.0896-0.0182-0.0897 0.3451 0.0717 0.1998-0.1971 0.4359-0.0896c0.10315-0.049501 0.20462-0.085156 0.30875-0.12545l-0.27243 0.2509 0.98074 0.66308v0.39426l-0.3814 0.37634 0.50853 1.0036 0.34508-0.19713 0.43588-0.66308c0.613-0.187 1.165-0.4045 1.744-0.6631l-0.03632 0.2509 0.29059 0.19713 0.50853-0.3405-0.25426-0.28674-0.34507 0.19713-0.10897-0.035839c0.02503-0.011286 0.0475-0.024369 0.07265-0.035839l0.50853-1.2903-1.1079-0.4301zm-4.9763 1.9355 0.41772 0.28674h0.34507v-0.3405l-0.4174-0.1792-0.3451 0.233zm9.6439-0.23297-0.74463 0.17921-0.47221 0.30466v0.26882l-0.74463 0.46595 0.1453 0.69892 0.43588-0.30466 0.27242 0.30466 0.30875 0.17921 0.19978-0.51971-0.10897-0.30466 0.10897-0.21505 0.43588-0.39426h0.19978l-0.19978 0.43011v0.39426c0.17966-0.048255 0.361-0.067048 0.54485-0.089606l-0.50853 0.35842-0.03632 0.21505-0.58118 0.48387-0.59934-0.14337v-0.3405l-0.27242 0.17921 0.12713 0.30466h-0.43588l-0.2361 0.39426-0.29059 0.32258-0.52669 0.10753 0.30875 0.30466 0.07265 0.30466h-0.3814l-0.50853 0.26882v0.78853h0.2361l0.21794 0.23297 0.49037-0.23297 0.18162-0.48387 0.36323-0.21505 0.07265-0.17921 0.58118-0.14337 0.32691 0.35842 0.34507 0.17921-0.19978 0.39426 0.30875-0.089606 0.16346-0.39426-0.39956-0.44803h0.16346l0.39956 0.32258 0.07265 0.4301 0.34507 0.39426 0.09081-0.57347 0.18162-0.089606c0.19332 0.19803 0.3457 0.44021 0.50853 0.66308l0.59934 0.035848 0.34507 0.21505-0.16346 0.23297-0.34507 0.30466h-0.50853l-0.672-0.2149-0.345 0.0358-0.254 0.2868-0.727-0.7169-0.508-0.1434-0.745 0.0896-0.654 0.1793c-0.373 0.4172-0.755 0.839-1.108 1.2724l-0.41772 1.0036 0.19978 0.21505-0.36323 0.51971 0.39956 0.91397c0.33247 0.37112 0.6669 0.73973 0.9989 1.1111l0.49037-0.41218 0.19978 0.2509 0.52669-0.3405 0.18162 0.19713h0.52669l0.30875 0.3405-0.18162 0.60931 0.36324 0.41218-0.01816 0.71684 0.27243 0.51971-0.19978 0.44803c-0.01947 0.32133-0.03632 0.62843-0.03632 0.94982 0.16024 0.43539 0.3209 0.86971 0.47221 1.3082l0.10897 0.69892v0.35842h0.29059l0.41772-0.26882h0.50853l0.76279-0.84229-0.09081-0.28674 0.50853-0.44803-0.3814-0.41218 0.45404-0.35842 0.43588-0.26882 0.19978-0.21505-0.12713-0.48387v-1.2186l0.34507-0.75268 0.43588-0.46594 0.47221-1.1469v-0.30466c-0.23498 0.02921-0.46022 0.05555-0.69015 0.07169l0.4722-0.46595 0.65382-0.4301 0.34507-0.39426v-0.4301c-0.078-0.146-0.157-0.3028-0.236-0.4484l-0.309 0.3584-0.236-0.2688-0.345-0.2688v-0.55555l0.39956 0.44803 0.45404-0.053771c0.20483 0.18349 0.40152 0.34664 0.58118 0.55555l0.2906-0.32259c0-0.34728-0.3964-2.0617-1.2532-3.5125-0.85677-1.4503-2.361-2.7778-2.361-2.7778l-0.10897 0.19713-0.39956 0.43011-0.50853-0.51971h0.50853l0.23611-0.2509-0.94441-0.17921-0.49037-0.17921zm-10.915 0.233-0.1816 0.466s-0.31797 0.051801-0.39956 0.071684c-1.042 0.94747-3.1432 3.0026-3.6323 6.8638 0.019368 0.08952 0.34507 0.60931 0.34507 0.60931l0.79912 0.46595 0.79912 0.21505 0.34507 0.41218 0.52669 0.39426 0.30875-0.05376 0.21794 0.10753v0.07168l-0.29059 0.80645-0.2361 0.3405 0.072646 0.16129-0.18162 0.64516 0.67198 1.2186 0.69015 0.59139 0.30875 0.43011-0.036326 0.89605 0.21794 0.50179-0.21794 0.96774s-0.029082-0.008 0 0.08961c0.029341 0.09761 1.2141 0.75424 1.2895 0.69892 0.075171-0.05635 0.14529-0.10753 0.14529-0.10753l-0.072647-0.21505 0.30875-0.28674 0.10897-0.30466 0.49037-0.16129 0.3814-0.93189-0.10897-0.2509 0.25426-0.39426 0.58118-0.12545 0.29059-0.681-0.072647-0.84229 0.45404-0.62724 0.07265-0.64516c-0.6232-0.305-1.2344-0.618-1.8527-0.932l-0.3088-0.592-0.563-0.125-0.3088-0.806-0.7446 0.089-0.6538-0.466-0.6902 0.592v0.08961c-0.2067-0.06-0.4516-0.068-0.6356-0.18l-0.14529-0.43011v-0.46595l-0.47221 0.05376c0.037999-0.2968 0.088867-0.5993 0.12713-0.89605h-0.27243l-0.27243 0.3405-0.25426 0.12545-0.3814-0.21505-0.036326-0.46595 0.072647-0.50179 0.56301-0.43011h0.45404l0.090809-0.25089 0.56301 0.12545 0.41772 0.51971 0.072646-0.86021 0.72647-0.59139 0.2543-0.6276 0.5449-0.2151 0.2905-0.4301 0.6902-0.1254 0.3451-0.5018h-1.0352l0.65382-0.30466h0.45404l0.5811-0.1971 0.109 0.5556 0.2542-0.3943-0.2906-0.1971 0.0727-0.233-0.2361-0.2151-0.2543-0.0716 0.0727-0.2689-0.1998-0.3763-0.4541 0.1792 0.0727-0.3405-0.5267-0.3047-0.4177 0.7169 0.0363 0.2509-0.4177 0.1792-0.2543 0.5555-0.1271-0.5197-0.7083-0.2867-0.1272-0.3943 0.9626-0.5376 0.4177-0.3943 0.0364-0.4659-0.2361-0.1255-0.3088-0.0358zm7.7914 0.86021v0.28673l0.16346 0.17921v0.43011l-0.09081 0.57347 0.4722-0.089605 0.34507-0.3405-0.30875-0.28674c-0.099-0.2631-0.2-0.5003-0.326-0.7527h-0.25426zm-0.39956 0.57347-0.29059 0.089607 0.07265 0.51971 0.3814-0.19713-0.16346-0.41218zm5.3214 4.7132 0.43588 0.50179 0.52669 1.1111 0.32691 0.35842-0.16345 0.37634 0.29059 0.3405c-0.13335 0.0087-0.2625 0.01792-0.39956 0.01792-0.24899-0.51627-0.44605-1.0369-0.63566-1.577l-0.328-0.358-0.181-0.6447 0.127-0.1255z"/>
  <path id="path10380-0-8" d="m2.691 2.7281s0.11946 1.4563 1.1392 2.0634c1.1319-0.3245 2.4734 0.00761 2.4734 0.00761s0.89592-1.2057 2.874-1.2154c-1.4293 0.9024-1.4509 2.1099-1.4509 2.1099 0.4035 0.81426 0.60606 0.96758 2.158 0.94227 0.79988-0.013044 0.85339 0.026359 0.63758 0.80298-0.16102 0.57944-1.5096 0.78214-2.0435 1.565 0.214 0.8402 0.17215 1.5424 0.17215 1.5424-2.4511-1.1968-2.8098 2.0567-0.037275 2.0567 1.1867 0 3.133-1.6875 4.527-0.01405 0.5092 0.61129-0.60529 0.47266-0.94002 0.6391-1.0275 0.51096-1.2764 1.9602-4.0815 1.7736 10.028 4.0308 13.533-9.8085 6.5746-13.836 4.9721 1.9839 6.7578 6.316 6.8102 9.7715 0 6.5387-5.2819 10.615-10.504 10.615-5.2219 0-10.504-4.0755-10.504-10.561 0-2.5909 1.0032-4.4574 1.0032-4.4574-0.1157-3.222 1.1918-3.8056 1.1918-3.8056z" stroke="url(#linearGradient4539)" fill="url(#radialGradient4537)"/>
  <path id="path8655" opacity=".5" stroke-linejoin="round" style="color:#000000" d="m4.5795 4.046c1.7313-1.7252 3.7182-2.5473 6.36-2.5473 5.2831 0 9.5666 4.2682 9.5666 9.5335 0 5.2656-4.2835 9.5342-9.5666 9.5342-5.2836 0-9.5668-4.2687-9.5668-9.5342" stroke="url(#linearGradient4533)" stroke-linecap="round" fill="none"/>
  <path id="path9948" opacity=".5" d="m2.4695 4.1728c-0.188 0.47609-0.35961 1.1471-0.31696 2.3319 0.0081 0.11654-0.015624 0.23514-0.06792 0.3396 0 0-0.92825 1.7206-0.92825 4.1431 0 6.1288 4.9693 9.9164 9.8485 9.9164 4.8798 0 9.8485-3.7767 9.8485-9.9617-0.03232-2.1325-0.85747-4.5764-2.6942-6.5656 1.0743 2.2136 1.0519 4.7427 0.24904 6.9505-0.6764 1.8602-1.9507 3.4894-3.7583 4.3695-1.8075 0.88013-4.1294 0.97058-6.7694-0.09056-0.29328-0.1121-0.47638-0.45635-0.40538-0.76219 0.070999-0.30584 0.38703-0.53423 0.6997-0.50566 1.2895 0.08578 1.8302-0.1758 2.264-0.49808 0.43385-0.32229 0.75578-0.84396 1.4716-1.1999 0.04879-0.02426 0.07054-0.0067 0.1132-0.02264-0.04531-0.01417-0.08891-0.08129-0.13584-0.09056-0.25812-0.05099-0.57654-0.02297-0.92824 0.06792-0.70342 0.18179-1.4524 0.65656-2.3546 0.65656-1.6417 0-2.6667-1.0768-2.581-2.1735 0.0422-0.548 0.3893-1.0877 0.9503-1.3131 0.2804-0.1127 0.5977-0.1487 0.9282-0.1132-0.0233-0.2143 0-0.2315-0.0679-0.4981-0.0434-0.176-0.0098-0.3697 0.0906-0.5207 0.3991-0.5853 0.9744-0.866 1.4036-1.0868 1.1056-0.3651-0.632-0.0416-1.2225-0.4754-0.4865-0.2263-0.7586-0.6529-0.9736-1.0867-0.04499-0.091089-0.068449-0.19273-0.06792-0.29432 0 0-0.017663-0.32996 0.18112-0.81504-0.3125 0.1293-0.4301 0.317-0.4301 0.317-0.1518 0.2054-0.4307 0.3076-0.6792 0.249 0 0-1.2471-0.27522-2.1282-0.02264-0.17299 0.05002-0.36635 0.024799-0.52072-0.06792-0.5222-0.3108-0.8046-0.7506-1.0188-1.1772z" stroke="url(#radialGradient4535)" stroke-width="0.6" fill="none"/>
 </g>
</svg>
