<?xml version="1.0" encoding="UTF-8" standalone="no"?>
<!-- Created with Inkscape (http://www.inkscape.org/) -->
<svg id="svg3935" xmlns:rdf="http://www.w3.org/1999/02/22-rdf-syntax-ns#" xmlns="http://www.w3.org/2000/svg" height="16" width="16" version="1.1" xmlns:cc="http://creativecommons.org/ns#" xmlns:xlink="http://www.w3.org/1999/xlink" xmlns:dc="http://purl.org/dc/elements/1.1/">
 <defs id="defs3937">
  <linearGradient id="linearGradient3892" y2=".12067" xlink:href="#linearGradient3707-319-631-407-324-3-8" gradientUnits="userSpaceOnUse" x2="7.4296" y1="13.163" x1="7.4296"/>
  <linearGradient id="linearGradient3707-319-631-407-324-3-8">
   <stop id="stop3760-7-3" stop-color="#185f9a" offset="0"/>
   <stop id="stop3762-8-4" stop-color="#599ec9" offset="1"/>
  </linearGradient>
  <linearGradient id="linearGradient3071" y2="44.341" gradientUnits="userSpaceOnUse" x2="71.204" gradientTransform="matrix(.35135 0 0 .35135 -17.204 -.90930)" y1="6.2376" x1="71.204">
   <stop id="stop4013" stop-color="#fff" offset="0"/>
   <stop id="stop4015" stop-color="#fff" stop-opacity=".23529" offset=".50776"/>
   <stop id="stop4017" stop-color="#fff" stop-opacity=".15686" offset=".83457"/>
   <stop id="stop4019" stop-color="#fff" stop-opacity=".39216" offset="1"/>
  </linearGradient>
  <radialGradient id="radialGradient3931" gradientUnits="userSpaceOnUse" cy="8.4498" cx="5.78" gradientTransform="matrix(0 .89893 -.95096 -1.6562e-8 16.035 -6.0147)" r="20">
   <stop id="stop3750-8-9" stop-color="#90dbec" offset="0"/>
   <stop id="stop3752-3-2" stop-color="#55c1ec" offset=".26238"/>
   <stop id="stop3754-7-2" stop-color="#3689e6" offset=".70495"/>
   <stop id="stop3756-9-3" stop-color="#2b63a0" offset="1"/>
  </radialGradient>
  <linearGradient id="linearGradient3933" y2="3.899" xlink:href="#linearGradient3707-319-631-407-324-3-8" gradientUnits="userSpaceOnUse" x2="24" gradientTransform="matrix(.38465 0 0 .38465 -1.2316 -1.2316)" y1="44" x1="24"/>
  <radialGradient id="radialGradient9234" gradientUnits="userSpaceOnUse" cy="16.569" cx="16.768" gradientTransform="matrix(.45157 0 0 .44664 .27961 .50882)" r="19.594">
   <stop id="stop9952" stop-color="#fff" stop-opacity=".15686" offset="0"/>
   <stop id="stop9960" stop-color="#fff" stop-opacity=".23529" offset=".43016"/>
   <stop id="stop9958" stop-color="#fff" stop-opacity=".39216" offset=".94998"/>
   <stop id="stop9954" stop-color="#fff" offset="1"/>
  </radialGradient>
  <linearGradient id="linearGradient9236" y2="44.341" gradientUnits="userSpaceOnUse" x2="71.204" gradientTransform="matrix(.35142 0 0 .35211 -17.193 -.87583)" y1="6.2376" x1="71.204">
   <stop id="stop4013-5" stop-color="#fff" offset="0"/>
   <stop id="stop4015-0" stop-color="#fff" stop-opacity=".23529" offset=".50776"/>
   <stop id="stop4017-5" stop-color="#fff" stop-opacity=".15686" offset=".83457"/>
   <stop id="stop4019-6" stop-color="#fff" stop-opacity=".39216" offset="1"/>
  </linearGradient>
  <radialGradient id="radialGradient9238" fy="22.504" gradientUnits="userSpaceOnUse" cy="26.141" cx="21.12" gradientTransform="matrix(0 .38542 -.42228 0 19.039 -.12292)" r="20.002">
   <stop id="stop9910" stop-color="#ffca51" offset="0"/>
   <stop id="stop9926" stop-color="#ffbb39" offset=".39939"/>
   <stop id="stop9928" stop-color="#ff780b" offset=".77552"/>
   <stop id="stop9912" stop-color="#ff6201" offset="1"/>
  </radialGradient>
  <linearGradient id="linearGradient9240" y2="44.332" gradientUnits="userSpaceOnUse" x2="32.438" gradientTransform="matrix(.37464 0 0 .37555 -.99138 -1.3657)" y1="8.5399" x1="21.375">
   <stop id="stop9946" stop-color="#de6300" offset="0"/>
   <stop id="stop9944" stop-color="#d04e00" offset="1"/>
  </linearGradient>
  <radialGradient id="radialGradient9242" gradientUnits="userSpaceOnUse" cy="8.4498" cx="6.2973" gradientTransform="matrix(0 .51456 -.54432 -1.4005e-8 12.599 -2.706)" r="20">
   <stop id="stop3750-8-9-5" stop-color="#90dbec" offset="0"/>
   <stop id="stop3752-3-2-4" stop-color="#42baea" offset=".26238"/>
   <stop id="stop3754-7-2-9" stop-color="#3689e6" offset=".70495"/>
   <stop id="stop3756-9-3-3" stop-color="#2b63a0" offset="1"/>
  </radialGradient>
  <linearGradient id="linearGradient9244" y2="3.899" gradientUnits="userSpaceOnUse" x2="24" gradientTransform="matrix(.38393 0 0 .38394 -1.2142 -1.2144)" y1="44" x1="24">
   <stop id="stop3760-7-3-3" stop-color="#185f9a" offset="0"/>
   <stop id="stop3762-8-4-3" stop-color="#599ec9" offset="1"/>
  </linearGradient>
 </defs>
 <metadata id="metadata3940">
  <rdf:RDF>
   <cc:Work rdf:about="">
    <dc:format>image/svg+xml</dc:format>
    <dc:type rdf:resource="http://purl.org/dc/dcmitype/StillImage"/>
    <dc:title/>
   </cc:Work>
  </rdf:RDF>
 </metadata>
 <g id="layer1">
  <path id="path2555-7" stroke-linejoin="round" style="color:#000000" d="m8 0.5c-4.1382 0-7.5 3.3618-7.5 7.5 0 4.138 3.3618 7.5 7.5 7.5 4.138 0 7.5-3.362 7.5-7.5 0-4.1382-3.362-7.5-7.5-7.5z" stroke="url(#linearGradient3933)" stroke-linecap="round" fill="url(#radialGradient3931)"/>
  <path id="path8655-6" opacity=".5" stroke-linejoin="round" style="color:#000000" d="m14.5 7.9998c0 3.5902-2.91 6.5002-6.4999 6.5002s-6.5001-2.91-6.5001-6.5002c0-3.5898 2.9102-6.4998 6.5001-6.4998s6.4999 2.91 6.4999 6.4998v0z" stroke="url(#linearGradient3071)" stroke-linecap="round" fill="none"/>
  <path id="path3298-7" fill="url(#linearGradient3892)" d="m8.3414 8.986c-0.0248-0.9072 0.1734-1.7879 1.0091-2.4118 0.8825-0.7055 1.7325-1.5882 1.6425-2.6287-0.019-1.0035-1.1591-1.7899-2.3874-1.9029-1.3815-0.1963-3.0532 0.2891-3.5162 1.3957-0.2348 0.5382-0.0171 1.5039 0.7709 1.5039 0.46089 0 0.67259-0.30536 0.70736-0.58469 0.026312-0.21135-0.058288-0.40009-0.10825-0.57466-0.056929-0.19892 0.18609-0.58445 0.45078-0.74153 0.22118-0.13126 0.45258-0.17527 0.48669-0.18368 0.7943-0.19579 1.5861 0.23668 1.9165 0.76304 0.33036 0.52636-0.033266 1.3248-0.55607 2.1012-0.52281 0.77641-1.0839 1.6582-1.0816 2.5949 0 0.35659-0.030978 0.47773-0.00897 0.62199 0.017586 0.11526 0.38971 0.10133 0.67469 0.047272zm-0.3625 1.221c-0.75948-0.04229-1.2851 0.84077-0.82889 1.4034 0.40746 0.6212 1.5499 0.46785 1.7457-0.23559 0.20357-0.54702-0.28633-1.1769-0.91681-1.1678v0.000001z"/>
  <path id="path3298" fill="#fff" d="m8.3414 9.986c-0.0248-0.9072 0.1734-1.7879 1.0091-2.4118 0.8825-0.7055 1.7325-1.5882 1.6425-2.6287-0.019-1.0035-1.1591-1.7899-2.3874-1.9029-1.3815-0.1963-3.0532 0.2891-3.5162 1.3957-0.2348 0.5382-0.0171 1.5039 0.7709 1.5039 0.46089 0 0.67259-0.30536 0.70736-0.58469 0.026312-0.21135-0.058288-0.40009-0.10825-0.57466-0.056929-0.19892 0.18609-0.58445 0.45078-0.74153 0.22118-0.13126 0.45258-0.17527 0.48669-0.18368 0.7943-0.19579 1.5861 0.23668 1.9165 0.76304 0.33036 0.52636-0.033266 1.3248-0.55607 2.1012-0.52281 0.77641-1.0839 1.6582-1.0816 2.5949 0 0.35659-0.030978 0.47773-0.00897 0.62199 0.017586 0.11526 0.38971 0.10133 0.67469 0.047272zm-0.3625 1.221c-0.75948-0.04229-1.2851 0.84077-0.82889 1.4034 0.40746 0.6212 1.5499 0.46785 1.7457-0.23559 0.20357-0.54702-0.28633-1.1769-0.91681-1.1678v0.000001z"/>
 </g>
 <g id="g9225">
  <path id="path2555" stroke-linejoin="round" style="color:#000000" d="m8 0.51402c-4.1304 0-7.4859 3.3555-7.4859 7.4861s3.3554 7.4861 7.4859 7.4861c4.1304 0 7.4859-3.3555 7.4859-7.4861s-3.3554-7.4861-7.4859-7.4861z" stroke="url(#linearGradient9244)" stroke-linecap="round" fill="url(#radialGradient9242)"/>
  <path id="path6534-3" opacity=".4" d="m8.1265 1.3539-0.9069 0.0995-0.9977 0.2614c0.084983-0.028569 0.17108-0.059755 0.25913-0.087113l-0.1166-0.1992-0.3887 0.0623-0.1943 0.1742-0.298 0.0373-0.2721 0.1245-0.1296 0.0622-0.0388 0.0498-0.1944 0.0373-0.1166 0.2364-0.1555-0.2986-0.0518 0.1244 0.0259 0.336-0.2462 0.1991-0.1425 0.3609h0.298l0.11661-0.23645 0.03887-0.087112c0.131-0.0889 0.2552-0.188 0.3887-0.2737l0.311 0.0995c0.2024 0.1322 0.4063 0.2664 0.6089 0.3983l0.298-0.2614-0.3369-0.1369-0.1554-0.2986-0.5701-0.0623-0.013-0.0622 0.2462 0.0498 0.1425-0.1369 0.311-0.0622c0.073587-0.034374 0.14598-0.059136 0.22026-0.087113l-0.19435 0.17423 0.69966 0.46045v0.27378l-0.2721 0.2613 0.3627 0.6969 0.2462-0.1369 0.311-0.4605c0.4372-0.1298 0.8312-0.2809 1.2438-0.4604l-0.0259 0.1742 0.2073 0.1369 0.3628-0.2365-0.1814-0.1991-0.2462 0.1369-0.0777-0.0249c0.017857-0.00785 0.033887-0.016924 0.051829-0.024888l0.3628-0.896-0.7903-0.2986zm-3.5501 1.344 0.298 0.19911h0.24618v-0.23645l-0.298-0.12445-0.24618 0.16178zm6.88-0.16178-0.53122 0.12445-0.33687 0.21156v0.18667l-0.53122 0.32356 0.10365 0.48534 0.31096-0.21156 0.19435 0.21156 0.22026 0.12445 0.14252-0.3609-0.07774-0.21156 0.07774-0.14934 0.31096-0.27378h0.14252l-0.14252 0.29867v0.27378c0.12817-0.033512 0.25754-0.046561 0.3887-0.062227l-0.36279 0.24889-0.02592 0.14934-0.41461 0.33601-0.42757-0.099558v-0.23645l-0.19435 0.12445 0.09069 0.21156h-0.31096l-0.16844 0.27378-0.20731 0.224-0.37574 0.074668 0.22026 0.21156 0.051828 0.21156h-0.27209l-0.36279 0.18667v0.54756h0.16844l0.15548 0.16178 0.34983-0.16178 0.12957-0.336 0.25913-0.14934 0.05183-0.12445 0.41461-0.099557 0.23322 0.24889 0.24618 0.12445-0.14252 0.27378 0.22026-0.062224 0.11661-0.27378-0.28505-0.31112h0.11661l0.28505 0.224 0.05183 0.29867 0.24617 0.27378 0.06478-0.39823 0.12957-0.062224c0.13792 0.13752 0.24663 0.30569 0.36279 0.46045l0.42757 0.024893 0.24618 0.14934-0.11661 0.16178-0.24618 0.21156h-0.36279l-0.4794-0.14934-0.24617 0.024894-0.18139 0.19912-0.51826-0.49779-0.36279-0.099557-0.53122 0.062223-0.46644 0.12445c-0.2671 0.2892-0.5395 0.5822-0.7913 0.8831l-0.2981 0.6969 0.1426 0.1493-0.2592 0.3609 0.2851 0.6347c0.2372 0.2577 0.4758 0.5137 0.7126 0.7716l0.34983-0.28623 0.14252 0.17423 0.37574-0.23645 0.12956 0.13689h0.37574l0.22026 0.23645-0.12957 0.42312 0.25913 0.28623-0.01296 0.49779 0.19435 0.3609-0.14252 0.31112c-0.01389 0.22314-0.02591 0.4364-0.02591 0.65957 0.11432 0.30234 0.22893 0.60394 0.33688 0.90846l0.07774 0.48534v0.24889h0.2073l0.298-0.18667h0.36279l0.54418-0.5849-0.06478-0.19912 0.36279-0.31112-0.27209-0.28623 0.32392-0.24889 0.31096-0.18667 0.14252-0.14934-0.0907-0.33601v-0.84624l0.24618-0.52268 0.31096-0.32356 0.33688-0.79646v-0.21156c-0.16764 0.020284-0.32832 0.038575-0.49236 0.049783l0.33687-0.32356 0.46644-0.29867 0.24618-0.27378v-0.29867c-0.057-0.1005-0.113-0.2094-0.169-0.3105l-0.221 0.2489-0.168-0.1867-0.246-0.1866v-0.38579l0.28505 0.31112 0.32392-0.03734c0.14613 0.12742 0.28644 0.24071 0.41461 0.38578l0.20731-0.22401c0-0.24116-0.28279-1.4317-0.89401-2.4392-0.61122-1.0071-1.6844-1.9289-1.6844-1.9289l-0.07774 0.13689-0.28505 0.29867-0.36279-0.36089h0.36279l0.16844-0.17423-0.67374-0.12445-0.34983-0.12445zm-7.7865 0.1618-0.1296 0.3235s-0.22684 0.035971-0.28505 0.049776c-0.74336 0.65794-2.2424 2.085-2.5913 4.7663 0.013817 0.062164 0.24618 0.42312 0.24618 0.42312l0.57009 0.32356 0.57009 0.14934 0.24618 0.28623 0.37574 0.27378 0.22026-0.037332 0.15548 0.07467v0.049776l-0.20731 0.56001-0.16844 0.23645 0.051826 0.112-0.12957 0.44801 0.4794 0.84624 0.49235 0.41067 0.22026 0.29867-0.025915 0.62223 0.15548 0.34845-0.15548 0.67201s-0.020747-0.0055 0 0.06223c0.020932 0.06778 0.86611 0.52376 0.91992 0.48534 0.053627-0.03913 0.10365-0.07467 0.10365-0.07467l-0.051826-0.14934 0.22026-0.19912 0.077741-0.21156 0.34983-0.112 0.27209-0.64712-0.07774-0.17423 0.18139-0.27378 0.41461-0.08711 0.20731-0.4729-0.051826-0.5849 0.32392-0.43556 0.051828-0.44801c-0.4446-0.211-0.8807-0.428-1.3218-0.6464l-0.2202-0.4107-0.4017-0.0871-0.2203-0.56-0.5312 0.0622-0.4664-0.3236-0.4924 0.4107v0.062227c-0.1474-0.0409-0.3221-0.0469-0.4534-0.1244l-0.1037-0.2987v-0.32356l-0.33687 0.037332c0.027109-0.2061 0.063398-0.41617 0.090696-0.62223h-0.19435l-0.1943 0.2364-0.1814 0.0871-0.2721-0.1493-0.0259-0.3236 0.0518-0.3484 0.4017-0.2987h0.32392l0.0648-0.1742 0.4017 0.0871 0.298 0.3609 0.0518-0.5974 0.5183-0.4106 0.1814-0.4356 0.3887-0.1493 0.2073-0.2987 0.4923-0.0871 0.2462-0.3485h-0.73853l0.46644-0.21156h0.32392l0.41461-0.13689 0.07774 0.38578 0.1814-0.2737-0.2073-0.1369 0.0518-0.1618-0.1685-0.1493-0.1813-0.0498 0.0518-0.1867-0.1425-0.2613-0.324 0.1244 0.0519-0.2364-0.3758-0.2116-0.298 0.4978 0.0259 0.1742-0.298 0.1245-0.1814 0.3858-0.0907-0.3609-0.5053-0.1992-0.0907-0.2737 0.6867-0.3734 0.298-0.2738 0.026-0.3235-0.1685-0.0871-0.2202-0.0249zm5.5584 0.59734v0.19911l0.11661 0.12445v0.29867l-0.0648 0.3982 0.3369-0.0622 0.2461-0.2365-0.2202-0.1991c-0.0714-0.1827-0.1438-0.3474-0.2332-0.5227h-0.18139zm-0.2851 0.3983-0.2073 0.0622 0.0518 0.3609 0.2721-0.1369-0.1166-0.2862zm3.7963 3.2729 0.31096 0.34845 0.37574 0.77157 0.23322 0.24889-0.11661 0.26134 0.20731 0.23645c-0.09514 0.00604-0.18726 0.012444-0.28505 0.012444-0.177-0.3584-0.318-0.7199-0.453-1.095l-0.23322-0.24889-0.12957-0.44801 0.0907-0.087112z"/>
  <path id="path10380-0-8" d="m2.0716 2.1042s0.085226 1.039 0.81273 1.4721c0.80753-0.23151 1.7645 0.00543 1.7645 0.00543s0.63916-0.8602 2.0503-0.86707c-1.0196 0.6438-1.035 1.5053-1.035 1.5053 0.2879 0.5809 0.4324 0.6903 1.5395 0.6722 0.5707-0.0093 0.6088 0.0188 0.4549 0.5729-0.1149 0.4134-1.077 0.558-1.4579 1.1165 0.1527 0.5994 0.1228 1.1004 0.1228 1.1004-1.7486-0.8538-2.0044 1.4673-0.0266 1.4673 0.8467 0 2.2351-1.204 3.2296-0.01 0.3633 0.4361-0.4318 0.3372-0.6706 0.4559-0.733 0.3646-0.9106 1.3989-2.9118 1.2649 7.154 2.876 9.654-6.9972 4.69-9.8702 3.5471 1.4154 4.821 4.506 4.8584 6.9713 0 4.6649-3.7681 7.5727-7.4935 7.5727-3.7253 0-7.4935-2.9076-7.4935-7.5345 0-1.8484 0.71571-3.18 0.71571-3.18-0.082732-2.2987 0.85008-2.715 0.85008-2.715z" stroke="url(#linearGradient9240)" fill="url(#radialGradient9238)"/>
  <path id="path8655" opacity=".5" stroke-linejoin="round" style="color:#000000" d="m4.485 2.56c1.3443-0.8671 1.7358-1.0213 3.5311-1.0213 3.5903 0 6.5013 2.9163 6.5013 6.5139 0 3.5978-2.911 6.5143-6.5013 6.5143-3.5906 0-6.5014-2.9166-6.5014-6.5143" stroke="url(#linearGradient9236)" stroke-linecap="round" fill="none"/>
  <path id="path9948" opacity=".5" d="m1.9795 3.9258c-0.044232 0.26775 0.00774 0.69851 0.068131 0.87267 0.00578 0.083145-0.011146 0.16775-0.048455 0.24228 0 0-0.66284 1.2275-0.66284 2.9558 0 4.3724 3.1856 6.7391 6.6664 6.7391 3.4813 0 6.6904-2.0233 6.6904-6.4358-0.02305-1.5214-0.08439-2.1863-0.96325-3.8931 0.4308 1.7471 0.41482 2.4248-0.15791 3.9999-0.48255 1.3271-1.4636 2.5853-2.7531 3.2132-1.2895 0.62791-3.2576 0.74038-5.1409-0.01667-0.20923-0.07997-0.17206-0.61321-0.12141-0.83141 0.050651-0.2182 0.15626-0.68076 0.37932-0.66037 0.91996 0.0612 1.2577-0.12542 1.5672-0.35535 0 0 0.7378-0.51297 0.19171-0.24119-0.50182 0.1297-0.82046 0.46841-1.464 0.46841-1.1712 0-2.214-1.1398-2.1529-1.9221 0.03-0.3912 0.2776-0.9558 0.6778-1.1167 0.5944-0.324 0.6953-0.1112 0.7503-0.6637 0.2848-0.4176 0.5759-0.6495 0.5759-0.6495 0.531-0.2006 0.0166 0.1081-0.4047-0.2014-0.4994-0.366-0.6909-0.9665-0.6737-1.1712-0.1117 0.0902-0.2302 0.1174-0.4738 0.0862-0.6987-0.1047-1.19-0.0601-1.7759 0.0552-0.3726-0.2218-0.622-0.17-0.7748-0.4744z" stroke="url(#radialGradient9234)" stroke-width="0.6" fill="none"/>
 </g>
</svg>
